<?xml version="1.0" encoding="UTF-8"?>
<svg version="1.1" xmlns="http://www.w3.org/2000/svg" width="1200" height="630">
<path d="M0 0 C1.98 0.495 1.98 0.495 4 1 C3.67 2.65 3.34 4.3 3 6 C1.68 5.67 0.36 5.34 -1 5 C-0.67 3.35 -0.34 1.7 0 0 Z M-14 1 C-12.68 1 -11.36 1 -10 1 C-9.67 2.32 -9.34 3.64 -9 5 C-10.875 6.0625 -10.875 6.0625 -13 7 C-13.66 6.67 -14.32 6.34 -15 6 C-14.67 4.35 -14.34 2.7 -14 1 Z M13 1 C14.65 1 16.3 1 18 1 C18 2.65 18 4.3 18 6 C16.35 6 14.7 6 13 6 C13 4.35 13 2.7 13 1 Z M-27 3 C-24.9375 3.4375 -24.9375 3.4375 -23 4 C-23.33 5.65 -23.66 7.3 -24 9 C-25.65 8.67 -27.3 8.34 -29 8 C-28.125 4.125 -28.125 4.125 -27 3 Z M27 3 C28.65 3.33 30.3 3.66 32 4 C31.67 5.32 31.34 6.64 31 8 C29.35 7.67 27.7 7.34 26 7 C26.33 5.68 26.66 4.36 27 3 Z M41 6 C42.98 6.495 42.98 6.495 45 7 C45 8.32 45 9.64 45 11 C43.35 11 41.7 11 40 11 C40.33 9.35 40.66 7.7 41 6 Z M-41 7 C-39.35 7.33 -37.7 7.66 -36 8 C-36.33 9.65 -36.66 11.3 -37 13 C-38.65 12.67 -40.3 12.34 -42 12 C-41.67 10.35 -41.34 8.7 -41 7 Z M3 11 C5.0625 11.4375 5.0625 11.4375 7 12 C7 13.32 7 14.64 7 16 C5.68 16.33 4.36 16.66 3 17 C2.61781233 15.34385343 2.28604898 13.67542976 2 12 C2.33 11.67 2.66 11.34 3 11 Z M54 11 C55.98 11.495 55.98 11.495 58 12 C58 13.32 58 14.64 58 16 C56.35 16 54.7 16 53 16 C53.33 14.35 53.66 12.7 54 11 Z M-11 12 C-9.35 12.33 -7.7 12.66 -6 13 C-6 14.32 -6 15.64 -6 17 C-7.875 17.625 -7.875 17.625 -10 18 C-10.66 17.34 -11.32 16.68 -12 16 C-11.625 13.875 -11.625 13.875 -11 12 Z M17 12 C18.98 12.495 18.98 12.495 21 13 C20.67 14.65 20.34 16.3 20 18 C18.68 17.67 17.36 17.34 16 17 C16.33 15.35 16.66 13.7 17 12 Z M-54 13 C-52.35 13 -50.7 13 -49 13 C-49 14.65 -49 16.3 -49 18 C-52.75 19.125 -52.75 19.125 -55 18 C-54.67 16.35 -54.34 14.7 -54 13 Z M365 13 C365 22.57 365 32.14 365 42 C361.7 42 358.4 42 355 42 C347.31154395 43.56445157 342.33647709 47.5858793 338 54 C333.24838844 62.86967491 333.81721543 72.65538709 333.68359375 82.46875 C333.66281265 83.74480103 333.64203156 85.02085205 333.62062073 86.33557129 C333.56656328 89.70232035 333.5162401 93.06908195 333.46777344 96.43591309 C333.41723342 99.88180463 333.36176576 103.32761676 333.30664062 106.7734375 C333.19913983 113.5155627 333.09977528 120.25773838 333 127 C343.56 127 354.12 127 365 127 C365 136.24 365 145.48 365 155 C354.44 155 343.88 155 333 155 C333 188.33 333 221.66 333 256 C322.77 256 312.54 256 302 256 C302 222.67 302 189.34 302 155 C298.7 155 295.4 155 292 155 C292 145.76 292 136.52 292 127 C295.3 127 298.6 127 302 127 C301.99000725 125.76543816 301.99000725 125.76543816 301.97981262 124.50593567 C301.91934769 116.69573029 301.8738476 108.88564066 301.84456348 101.07526112 C301.82900142 97.06122042 301.80793948 93.0473754 301.77368164 89.03344727 C301.74074628 85.14953922 301.72307616 81.2658177 301.71536827 77.38178062 C301.70988534 75.91042844 301.6991814 74.43908481 301.68280983 72.96781349 C301.49719912 55.5732004 304.49145296 40.50347393 316.8125 27.5625 C331.27697345 14.12186729 345.98834174 12.48267597 365 13 Z M-24 14 C-21.875 14.375 -21.875 14.375 -20 15 C-20.33 16.65 -20.66 18.3 -21 20 C-22.32 20 -23.64 20 -25 20 C-25.625 18.125 -25.625 18.125 -26 16 C-25.34 15.34 -24.68 14.68 -24 14 Z M31 15 C32.98 15.495 32.98 15.495 35 16 C34.67 17.32 34.34 18.64 34 20 C32.68 20 31.36 20 30 20 C30.33 18.35 30.66 16.7 31 15 Z M-38 18 C-36.35 18.33 -34.7 18.66 -33 19 C-33.33 20.65 -33.66 22.3 -34 24 C-35.65 23.67 -37.3 23.34 -39 23 C-38.67 21.35 -38.34 19.7 -38 18 Z M66 18 C67.32 18 68.64 18 70 18 C70 19.32 70 20.64 70 22 C68.68 22 67.36 22 66 22 C66 20.68 66 19.36 66 18 Z M-66 19 C-64.32457024 19.28604898 -62.65614657 19.61781233 -61 20 C-61.33 21.65 -61.66 23.3 -62 25 C-63.65 25 -65.3 25 -67 25 C-67.042721 23.33388095 -67.04063832 21.66617115 -67 20 C-66.67 19.67 -66.34 19.34 -66 19 Z M44 19 C45.98 19.495 45.98 19.495 48 20 C48 21.32 48 22.64 48 24 C46.35 24 44.7 24 43 24 C43.33 22.35 43.66 20.7 44 19 Z M-8 23 C-6.35 23 -4.7 23 -3 23 C-3 24.65 -3 26.3 -3 28 C-4.65 28 -6.3 28 -8 28 C-8 26.35 -8 24.7 -8 23 Z M6 23 C7.65 23 9.3 23 11 23 C11 24.65 11 26.3 11 28 C9.35 28 7.7 28 6 28 C6 26.35 6 24.7 6 23 Z M-51 24 C-49.35 24 -47.7 24 -46 24 C-45.375 25.875 -45.375 25.875 -45 28 C-45.66 28.66 -46.32 29.32 -47 30 C-49.125 29.625 -49.125 29.625 -51 29 C-51 27.35 -51 25.7 -51 24 Z M21 24 C22.32 24.66 23.64 25.32 25 26 C25 26.99 25 27.98 25 29 C23.68 29.33 22.36 29.66 21 30 C20.34 28.68 19.68 27.36 19 26 C19.66 25.34 20.32 24.68 21 24 Z M-21 25 C-19.35 25.33 -17.7 25.66 -16 26 C-16.33 27.65 -16.66 29.3 -17 31 C-18.65 30.67 -20.3 30.34 -22 30 C-21.67 28.35 -21.34 26.7 -21 25 Z M56 25 C57.32 25 58.64 25 60 25 C60 26.65 60 28.3 60 30 C58.68 30 57.36 30 56 30 C56 28.35 56 26.7 56 25 Z M78 25 C79.98 25.495 79.98 25.495 82 26 C82 27.32 82 28.64 82 30 C80.35 29.67 78.7 29.34 77 29 C77.33 27.68 77.66 26.36 78 25 Z M-77 27 C-75.68 27 -74.36 27 -73 27 C-72.61781233 28.65614657 -72.28604898 30.32457024 -72 32 C-73 33 -73 33 -75.5625 33.0625 C-76.7690625 33.0315625 -76.7690625 33.0315625 -78 33 C-78.625 31.125 -78.625 31.125 -79 29 C-78.34 28.34 -77.68 27.68 -77 27 Z M34 28 C35.98 28.495 35.98 28.495 38 29 C37.67 30.32 37.34 31.64 37 33 C35.68 32.67 34.36 32.34 33 32 C33.33 30.68 33.66 29.36 34 28 Z M-35 29 C-33.35 29 -31.7 29 -30 29 C-29.67 30.65 -29.34 32.3 -29 34 C-30.65614657 34.38218767 -32.32457024 34.71395102 -34 35 C-35 34 -35 34 -35.0625 31.4375 C-35.041875 30.633125 -35.02125 29.82875 -35 29 Z M-62 30 C-59.875 30.375 -59.875 30.375 -58 31 C-57.4375 32.9375 -57.4375 32.9375 -57 35 C-58 36 -58 36 -60.5625 36.0625 C-61.7690625 36.0315625 -61.7690625 36.0315625 -63 36 C-63.625 34.125 -63.625 34.125 -64 32 C-63.34 31.34 -62.68 30.68 -62 30 Z M68 32 C69.98 32.495 69.98 32.495 72 33 C72 34.32 72 35.64 72 37 C70.68 37 69.36 37 68 37 C67.67 36.01 67.34 35.02 67 34 C67.33 33.34 67.66 32.68 68 32 Z M46 33 C48.475 33.495 48.475 33.495 51 34 C50.67 35.32 50.34 36.64 50 38 C48.68 37.67 47.36 37.34 46 37 C46 35.68 46 34.36 46 33 Z M-47 34 C-45.35 34.33 -43.7 34.66 -42 35 C-42.33 36.65 -42.66 38.3 -43 40 C-44.65 39.67 -46.3 39.34 -48 39 C-47.67 37.35 -47.34 35.7 -47 34 Z M-4 34 C-1.525 34.495 -1.525 34.495 1 35 C1 36.32 1 37.64 1 39 C-0.65 39 -2.3 39 -4 39 C-4 37.35 -4 35.7 -4 34 Z M11 34 C13.125 34.9375 13.125 34.9375 15 36 C14.34 37.32 13.68 38.64 13 40 C11.68 39.34 10.36 38.68 9 38 C9 37.01 9 36.02 9 35 C9.66 34.67 10.32 34.34 11 34 Z M89 34 C89.99 34 90.98 34 92 34 C91.67 35.65 91.34 37.3 91 39 C90.01 38.67 89.02 38.34 88 38 C88.33 36.68 88.66 35.36 89 34 Z M-88 36 C-86.32457024 36.28604898 -84.65614657 36.61781233 -83 37 C-82.67 37.99 -82.34 38.98 -82 40 C-82.99 41.485 -82.99 41.485 -84 43 C-85.65 42.67 -87.3 42.34 -89 42 C-89.042721 40.33388095 -89.04063832 38.66617115 -89 37 C-88.67 36.67 -88.34 36.34 -88 36 Z M-18 36 C-16.35 36 -14.7 36 -13 36 C-12.375 37.875 -12.375 37.875 -12 40 C-12.66 40.66 -13.32 41.32 -14 42 C-16.125 41.625 -16.125 41.625 -18 41 C-18 39.35 -18 37.7 -18 36 Z M23 37 C24.65 37 26.3 37 28 37 C27.67 38.65 27.34 40.3 27 42 C25.68 41.67 24.36 41.34 23 41 C23 39.68 23 38.36 23 37 Z M-73 38 C-70.875 38.375 -70.875 38.375 -69 39 C-68.375 40.875 -68.375 40.875 -68 43 C-68.66 43.66 -69.32 44.32 -70 45 C-72.125 44.625 -72.125 44.625 -74 44 C-74.625 42.125 -74.625 42.125 -75 40 C-74.34 39.34 -73.68 38.68 -73 38 Z M-30 39 C-27.875 39.375 -27.875 39.375 -26 40 C-26 41.65 -26 43.3 -26 45 C-27.65 45 -29.3 45 -31 45 C-31.625 43.125 -31.625 43.125 -32 41 C-31.34 40.34 -30.68 39.68 -30 39 Z M58 40 C59.65 40 61.3 40 63 40 C63 41.32 63 42.64 63 44 C61.35 44 59.7 44 58 44 C58 42.68 58 41.36 58 40 Z M-59 41 C-57.35 41.33 -55.7 41.66 -54 42 C-53.67 42.99 -53.34 43.98 -53 45 C-53.99 45.99 -54.98 46.98 -56 48 C-57.32 47.34 -58.64 46.68 -60 46 C-59.67 44.35 -59.34 42.7 -59 41 Z M37 41 C38.32 41 39.64 41 41 41 C40.67 42.65 40.34 44.3 40 46 C38.68 45.67 37.36 45.34 36 45 C36.33 43.68 36.66 42.36 37 41 Z M79 41 C80.32 41.33 81.64 41.66 83 42 C83 42.99 83 43.98 83 45 C81.68 45 80.36 45 79 45 C79 43.68 79 42.36 79 41 Z M-43 45 C-41.35 45.33 -39.7 45.66 -38 46 C-38.33 47.65 -38.66 49.3 -39 51 C-40.65 50.67 -42.3 50.34 -44 50 C-43.67 48.35 -43.34 46.7 -43 45 Z M-97 46 C-95.35 46.33 -93.7 46.66 -92 47 C-92 48.65 -92 50.3 -92 52 C-93.65 52.33 -95.3 52.66 -97 53 C-97.66 51.68 -98.32 50.36 -99 49 C-98.34 48.01 -97.68 47.02 -97 46 Z M49 47 C50.32 47 51.64 47 53 47 C52.67 48.65 52.34 50.3 52 52 C51.01 52 50.02 52 49 52 C49 50.35 49 48.7 49 47 Z M-81.4375 47.9375 C-80.2309375 47.9684375 -80.2309375 47.9684375 -79 48 C-78.61781233 49.65614657 -78.28604898 51.32457024 -78 53 C-79 54 -79 54 -81.5625 54.0625 C-82.7690625 54.0315625 -82.7690625 54.0315625 -84 54 C-84.38218767 52.34385343 -84.71395102 50.67542976 -85 49 C-84 48 -84 48 -81.4375 47.9375 Z M70 48 C71.98 48.495 71.98 48.495 74 49 C74 49.99 74 50.98 74 52 C72.35 51.67 70.7 51.34 69 51 C69.33 50.01 69.66 49.02 70 48 Z M-70 50 C-68.35 50 -66.7 50 -65 50 C-64.61781233 51.65614657 -64.28604898 53.32457024 -64 55 C-65 56 -65 56 -67.5625 56.0625 C-68.7690625 56.0315625 -68.7690625 56.0315625 -70 56 C-71.125 52.25 -71.125 52.25 -70 50 Z M-54 52 C-51.9375 52.4375 -51.9375 52.4375 -50 53 C-50 54.65 -50 56.3 -50 58 C-51.875 58.625 -51.875 58.625 -54 59 C-54.66 58.34 -55.32 57.68 -56 57 C-55.46428571 53.46428571 -55.46428571 53.46428571 -54 52 Z M60 55 C62.475 55.495 62.475 55.495 65 56 C64.67 56.99 64.34 57.98 64 59 C62.68 59 61.36 59 60 59 C60 57.68 60 56.36 60 55 Z M-105 57 C-102.875 57.375 -102.875 57.375 -101 58 C-100.61781233 59.65614657 -100.28604898 61.32457024 -100 63 C-101 64 -101 64 -103.5625 64.0625 C-104.7690625 64.0315625 -104.7690625 64.0315625 -106 64 C-106.625 61.625 -106.625 61.625 -107 59 C-106.34 58.34 -105.68 57.68 -105 57 Z M-92 58 C-89.375 58.375 -89.375 58.375 -87 59 C-86.957279 60.66611905 -86.95936168 62.33382885 -87 64 C-88 65 -88 65 -90.5625 65.0625 C-91.7690625 65.0315625 -91.7690625 65.0315625 -93 65 C-93.625 62.625 -93.625 62.625 -94 60 C-93.34 59.34 -92.68 58.68 -92 58 Z M-76.4375 59.9375 C-75.2309375 59.9684375 -75.2309375 59.9684375 -74 60 C-74 61.65 -74 63.3 -74 65 C-75.65 65.33 -77.3 65.66 -79 66 C-79.38218767 64.34385343 -79.71395102 62.67542976 -80 61 C-79 60 -79 60 -76.4375 59.9375 Z M-65 61 C-63.32457024 61.28604898 -61.65614657 61.61781233 -60 62 C-60 63.65 -60 65.3 -60 67 C-61.65614657 67.38218767 -63.32457024 67.71395102 -65 68 C-66 67 -66 67 -66.125 64.5 C-66 62 -66 62 -65 61 Z M-112 69 C-110.35 69.33 -108.7 69.66 -107 70 C-106.957279 71.66611905 -106.95936168 73.33382885 -107 75 C-108 76 -108 76 -110.5625 76.0625 C-111.7690625 76.0315625 -111.7690625 76.0315625 -113 76 C-113.625 74.1875 -113.625 74.1875 -114 72 C-113.34 71.01 -112.68 70.02 -112 69 Z M-100 70 C-98.32457024 70.28604898 -96.65614657 70.61781233 -95 71 C-94.67 71.99 -94.34 72.98 -94 74 C-94.99 75.485 -94.99 75.485 -96 77 C-97.65 76.67 -99.3 76.34 -101 76 C-101.042721 74.33388095 -101.04063832 72.66617115 -101 71 C-100.67 70.67 -100.34 70.34 -100 70 Z M-88 71 C-86.35 71 -84.7 71 -83 71 C-82.61781233 72.65614657 -82.28604898 74.32457024 -82 76 C-83 77 -83 77 -85.5625 77.0625 C-86.7690625 77.0315625 -86.7690625 77.0315625 -88 77 C-89.125 73.25 -89.125 73.25 -88 71 Z M-70.8125 71.3125 C-70.214375 71.539375 -69.61625 71.76625 -69 72 C-68.957279 73.66611905 -68.95936168 75.33382885 -69 77 C-70 78 -70 78 -72.5625 78.0625 C-73.7690625 78.0315625 -73.7690625 78.0315625 -75 78 C-75.6875 76.1875 -75.6875 76.1875 -76 74 C-74.39743056 71.55397296 -73.76732043 70.8903828 -70.8125 71.3125 Z M54 81 C55.72265625 81.11328125 55.72265625 81.11328125 58 82 C59.67415417 84.0455229 61.05304822 85.95872553 62.4375 88.1875 C63.02736694 89.12601807 63.02736694 89.12601807 63.62915039 90.08349609 C73.93016737 107.07262952 76.18296054 126.13697058 71.97265625 145.328125 C67.18180383 163.4140739 56.26995949 178.28735555 40.625 188.4375 C23.85572682 198.13539292 3.52393708 201.11613618 -15.5 197 C-28.82962249 192.76588462 -39.35252822 186.00313894 -49 176 C-49.66386719 175.36707031 -50.32773438 174.73414063 -51.01171875 174.08203125 C-62.93745754 161.94189715 -67.24320247 144.41467756 -68 128 C-62.32961731 128.54322564 -57.79167361 130.08086128 -52.625 132.4375 C-51.84697021 132.78949463 -51.06894043 133.14148926 -50.26733398 133.50415039 C-37.40390846 139.46278086 -25.59884412 146.53258665 -15 156 C-14.12730469 156.76441406 -13.25460938 157.52882813 -12.35546875 158.31640625 C-7.39514804 162.711533 -2.62973699 167.25945855 2 172 C3.67222287 167.58428648 5.30274641 163.15935303 6.875 158.70703125 C17.356686 129.40058534 32.74983881 103.73869905 54 81 Z M-115.4375 81.9375 C-114.2309375 81.9684375 -114.2309375 81.9684375 -113 82 C-112.375 84.375 -112.375 84.375 -112 87 C-112.66 87.66 -113.32 88.32 -114 89 C-116.625 88.625 -116.625 88.625 -119 88 C-119.042721 86.33388095 -119.04063832 84.66617115 -119 83 C-118 82 -118 82 -115.4375 81.9375 Z M-101 83 C-99.875 86.75 -99.875 86.75 -101 89 C-102.98 89 -104.96 89 -107 89 C-107 87.02 -107 85.04 -107 83 C-104.50907189 81.75453595 -103.58919267 82.2232422 -101 83 Z M-91.4375 82.9375 C-90.2309375 82.9684375 -90.2309375 82.9684375 -89 83 C-88.375 85.375 -88.375 85.375 -88 88 C-88.66 88.66 -89.32 89.32 -90 90 C-92.625 89.625 -92.625 89.625 -95 89 C-95.042721 87.33388095 -95.04063832 85.66617115 -95 84 C-94 83 -94 83 -91.4375 82.9375 Z M-81 83 C-78.375 83.375 -78.375 83.375 -76 84 C-75.957279 85.66611905 -75.95936168 87.33382885 -76 89 C-77 90 -77 90 -79.5625 90.0625 C-80.7690625 90.0315625 -80.7690625 90.0315625 -82 90 C-82.625 87.625 -82.625 87.625 -83 85 C-82.34 84.34 -81.68 83.68 -81 83 Z M-119.9375 94.9375 C-118.4834375 94.9684375 -118.4834375 94.9684375 -117 95 C-116.375 97.875 -116.375 97.875 -116 101 C-116.66 101.66 -117.32 102.32 -118 103 C-122.55555556 102.44444444 -122.55555556 102.44444444 -124 101 C-124.125 98.5 -124.125 98.5 -124 96 C-123 95 -123 95 -119.9375 94.9375 Z M-108.5 94.875 C-106 95 -106 95 -105 96 C-104.875 99 -104.875 99 -105 102 C-106 103 -106 103 -108.5 103.125 C-111 103 -111 103 -112 102 C-112.125 99 -112.125 99 -112 96 C-111 95 -111 95 -108.5 94.875 Z M-96.4375 94.8125 C-94 95 -94 95 -93 96 C-92.8125 98.4375 -92.8125 98.4375 -93 101 C-93.66 101.66 -94.32 102.32 -95 103 C-97.625 102.625 -97.625 102.625 -100 102 C-100.625 99.625 -100.625 99.625 -101 97 C-99 95 -99 95 -96.4375 94.8125 Z M-87 95 C-82.29411765 95.70588235 -82.29411765 95.70588235 -81 97 C-80.875 99.5 -80.875 99.5 -81 102 C-82 103 -82 103 -84.4375 103.1875 C-87 103 -87 103 -89 101 C-88.44444444 96.44444444 -88.44444444 96.44444444 -87 95 Z M-122.4375 107.8125 C-120 108 -120 108 -119 109 C-118.875 112 -118.875 112 -119 115 C-120 116 -120 116 -123 116.125 C-126 116 -126 116 -127 115 C-127.1875 112.5625 -127.1875 112.5625 -127 110 C-125 108 -125 108 -122.4375 107.8125 Z M-114 108 C-111.5 107.625 -111.5 107.625 -109 108 C-107 111 -107 111 -107.375 113.6875 C-107.58125 114.450625 -107.7875 115.21375 -108 116 C-111.01031744 116.93423645 -111.86650268 117.04449911 -115 116 C-115.625 113.6875 -115.625 113.6875 -116 111 C-115.34 110.01 -114.68 109.02 -114 108 Z M-102 108 C-97.44444444 108.55555556 -97.44444444 108.55555556 -96 110 C-95.95936168 111.66617115 -95.957279 113.33388095 -96 115 C-98.3125 116.125 -98.3125 116.125 -101 117 C-101.99 116.34 -102.98 115.68 -104 115 C-104.3125 112.5 -104.3125 112.5 -104 110 C-103.34 109.34 -102.68 108.68 -102 108 Z M-91 108 C-87.875 108.375 -87.875 108.375 -85 109 C-85 110.98 -85 112.96 -85 115 C-87.3125 116.125 -87.3125 116.125 -90 117 C-90.99 116.34 -91.98 115.68 -93 115 C-93.3125 112.5 -93.3125 112.5 -93 110 C-92.34 109.34 -91.68 108.68 -91 108 Z M441.203125 129.28515625 C448.84448073 134.52035989 453.57815646 141.5430113 457 150 C453.42075685 151.98663184 449.83594259 153.96299036 446.25 155.9375 C444.72632813 156.78344727 444.72632813 156.78344727 443.171875 157.64648438 C442.1921875 158.18466797 441.2125 158.72285156 440.203125 159.27734375 C439.30239258 159.77484131 438.40166016 160.27233887 437.47363281 160.78491211 C435.28466913 161.86016598 433.38129738 162.53103021 431 163 C430.443125 162.0925 429.88625 161.185 429.3125 160.25 C426.34296774 156.07660331 423.9342029 153.60443841 419 152.0625 C415.2715044 151.98482301 413.8201577 152.57153087 411 155 C409.341404 157.80896063 409.341404 157.80896063 409 161 C410.81260892 166.57725821 416.10400884 169.33174775 421 172 C423.87217806 173.32628312 426.77885321 174.56863471 429.6875 175.8125 C443.10658129 181.5734552 457.40462398 188.65287689 463.2734375 202.7890625 C466.91068522 213.85724642 465.53562785 225.42622981 461 236 C459.27965791 238.97961267 457.31641978 241.4648384 455 244 C454.24783203 244.90492188 454.24783203 244.90492188 453.48046875 245.828125 C446.54817767 253.5868936 436.06109257 258.27526042 425.7434082 259.20288086 C423.36633302 259.30278728 421.00407504 259.329038 418.625 259.3125 C417.36937256 259.30512817 417.36937256 259.30512817 416.08837891 259.29760742 C406.12794282 259.10870594 398.35012494 256.42053139 390 251 C389.10861328 250.42378906 389.10861328 250.42378906 388.19921875 249.8359375 C381.48787024 244.80628321 374.76049129 235.19262763 373 227 C376.74387096 225.15395204 380.49602791 223.32540817 384.25 221.5 C385.31347656 220.97535156 386.37695312 220.45070313 387.47265625 219.91015625 C389.00986328 219.16572266 389.00986328 219.16572266 390.578125 218.40625 C391.52075195 217.94541016 392.46337891 217.48457031 393.43457031 217.00976562 C396 216 396 216 400 216 C401.74609375 218.046875 401.74609375 218.046875 403.4375 220.75 C406.64840326 225.61104626 409.32763057 229.10921019 415 231 C420.43573921 231.40230084 426.1267073 231.68031099 431 229 C433.17565547 224.74758249 433.50537269 220.71681175 433 216 C428.41291867 206.22752238 417.24654395 202.64600343 408.03442383 198.39624023 C397.52199719 193.479522 387.79796456 187.39635024 382 177 C378.49143965 166.87076645 379.11493413 155.90397475 383 146 C387.89183845 136.32607589 395.5575346 129.34729434 405.73828125 125.69140625 C406.48464844 125.46324219 407.23101563 125.23507813 408 125 C408.60070312 124.80921875 409.20140625 124.6184375 409.8203125 124.421875 C420.73728466 122.30891265 431.60504165 123.6862743 441.203125 129.28515625 Z M254.75 141.1875 C268.36055505 152.89614343 275.84847482 168.31373368 278 186 C278.37715892 192.88664252 278.13534802 199.1879119 277 206 C243.67 206 210.34 206 176 206 C182.5237413 217.74273434 188.15492758 224.53950967 200.9375 228.875 C210.78792079 231.44133428 219.79927204 230.31947337 229 226 C232.59743034 223.63612182 235.95238031 221.04761969 239 218 C241.52094076 217.91152257 244.01430893 217.88472699 246.53515625 217.90234375 C247.66503212 217.90446617 247.66503212 217.90446617 248.81773376 217.90663147 C251.2326956 217.91224624 253.64756601 217.92480117 256.0625 217.9375 C257.69596221 217.9425131 259.32942586 217.94707634 260.96289062 217.95117188 C264.97529585 217.96222046 268.98763241 217.97949494 273 218 C264.19777167 236.47626315 252.94184499 248.83888589 233.4375 256 C216.20755337 261.73667587 197.30436403 260.48462071 180.9375 252.875 C164.2397334 244.35489268 153.06181653 230.51795729 146.93359375 212.94140625 C145.41844198 207.66399358 144.44107784 202.46936516 144 197 C143.92072266 196.04480469 143.92072266 196.04480469 143.83984375 195.0703125 C143.03415125 176.50435495 150.41334604 160.22055324 162.24609375 146.37109375 C186.94277997 119.80897639 226.9717699 119.92039457 254.75 141.1875 Z M179.4453125 171.0703125 C177.14858701 174.1367514 176 176.12449165 176 180 C199.43 180 222.86 180 247 180 C243.6362408 169.9087224 237.77128894 163.91509093 228.80859375 158.375 C210.16493411 149.24764507 192.13198802 156.37737202 179.4453125 171.0703125 Z M-129 127 C-113.49 127 -97.98 127 -82 127 C-81.01 133.6 -80.02 140.2 -79 147 C-72.53239631 170.28337327 -59.28884212 188.76161791 -38.32421875 201.1796875 C-18.47600385 212.04839272 3.90751866 214.79469485 25.7734375 209 C38.71826681 204.9430638 49.85011156 199.01043637 60 190 C60.67417969 189.41992188 61.34835937 188.83984375 62.04296875 188.2421875 C79.63241703 172.02197771 85.69363227 150.06367726 88 127 C103.51 127 119.02 127 135 127 C133.82851413 148.08674559 133.82851413 148.08674559 132.3125 155.125 C132.13807373 155.95427002 131.96364746 156.78354004 131.78393555 157.63793945 C126.56772971 181.13227131 114.44799057 201.61135638 98 219 C97.19046875 219.88558594 96.3809375 220.77117187 95.546875 221.68359375 C75.14710703 243.21328898 43.737893 257.88692538 14.02075195 259.12402344 C-16.34525783 259.84548616 -45.73263812 255.0167276 -71 237 C-72.51980469 235.92492187 -72.51980469 235.92492187 -74.0703125 234.828125 C-101.76519852 214.67644582 -120.56301795 185.52286112 -126.875 151.75 C-128.06451932 143.55553358 -128.51376096 135.26606362 -129 127 Z M548.91796875 126.84375 C561.81669439 126.26294434 573.74424648 130.04447288 585 136 C585.33 133.03 585.66 130.06 586 127 C596.23 127 606.46 127 617 127 C617 169.57 617 212.14 617 256 C606.77 256 596.54 256 586 256 C586 254.02 586 252.04 586 250 C585.28457031 250.39832031 584.56914063 250.79664063 583.83203125 251.20703125 C567.97746319 259.636821 550.41366546 261.63269984 532.9375 257.375 C515.62336223 252.01586212 501.34006994 240.53681138 492.6875 224.625 C488.24319299 216.12201833 485.77174091 207.5695873 485 198 C484.92072266 197.04480469 484.92072266 197.04480469 484.83984375 196.0703125 C484.03415125 177.50435495 491.41334604 161.22055324 503.24609375 147.37109375 C515.50213329 134.18931066 531.20193116 128.28701172 548.91796875 126.84375 Z M520.53515625 170.953125 C514.62416844 178.83444207 512.69022226 187.85446012 513.1171875 197.703125 C514.69751851 207.70113753 519.82531797 217.88852644 528 224 C537.62701878 230.2962748 547.50707209 233.74497088 559.00390625 231.3828125 C569.78720827 228.50556781 579.00320615 223.20652 584.78515625 213.40234375 C589.64643603 203.78920207 591.82866327 194.76668219 589.3046875 184.046875 C585.5422116 172.72782986 579.18552728 164.37892435 568.59765625 158.71484375 C550.85745488 150.47937589 532.71209463 156.19656187 520.53515625 170.953125 Z M660 127 C723.69 127 787.38 127 853 127 C853 169.57 853 212.14 853 256 C789.31 256 725.62 256 660 256 C660 213.43 660 170.86 660 127 Z M94 282 C97.0330345 285.6154099 98.8222365 289.61130295 100.7578125 293.87109375 C101.1063327 294.63043716 101.45485291 295.38978058 101.81393433 296.1721344 C102.5474634 297.7738974 103.27854367 299.37678381 104.00732422 300.98071289 C105.12104987 303.42881714 106.24552057 305.87177738 107.37109375 308.31445312 C108.08398686 309.87470156 108.79624776 311.43523905 109.5078125 312.99609375 C109.84322052 313.72332138 110.17862854 314.45054901 110.52420044 315.19981384 C112.14483123 318.78699462 113.44560356 322.06493827 114 326 C111.36 326 108.72 326 106 326 C104.68 323.03 103.36 320.06 102 317 C96.72 317 91.44 317 86 317 C84.68 319.97 83.36 322.94 82 326 C79.36 326 76.72 326 74 326 C74.63535123 321.75393386 76.10500187 318.36783709 77.984375 314.51953125 C78.28184631 313.90663742 78.57931763 313.29374359 78.88580322 312.66227722 C79.8351674 310.7096817 80.79248366 308.76110856 81.75 306.8125 C82.37812055 305.52303787 83.00572934 304.23332632 83.6328125 302.94335938 C87.04296048 295.93953814 90.49790113 288.95833207 94 282 Z M93 299 C91.68 302.3 90.36 305.6 89 309 C92.3 309 95.6 309 99 309 C97.68 305.7 96.36 302.4 95 299 C94.34 299 93.68 299 93 299 Z M118 282 C125.88872162 288.76176139 125.88872162 288.76176139 129.26171875 292.12890625 C130.35129883 293.21655273 130.35129883 293.21655273 131.46289062 294.32617188 C132.19701172 295.06416016 132.93113281 295.80214844 133.6875 296.5625 C134.43322266 297.30435547 135.17894531 298.04621094 135.94726562 298.81054688 C136.66978516 299.53435547 137.39230469 300.25816406 138.13671875 301.00390625 C138.78342529 301.65174072 139.43013184 302.2995752 140.09643555 302.96704102 C142.18845323 305.20126331 144.08795477 307.60994346 146 310 C146.33 301.75 146.66 293.5 147 285 C149.31 285 151.62 285 154 285 C154 299.19 154 313.38 154 328 C149.10078608 323.80067378 144.52018061 319.67544968 140 315.125 C139.4225 314.55136719 138.845 313.97773438 138.25 313.38671875 C133.94275323 309.06985759 130.03562368 304.61214135 126 300 C125.67 308.58 125.34 317.16 125 326 C122.69 326 120.38 326 118 326 C118 311.48 118 296.96 118 282 Z M402 282 C405.0621243 283.53106215 405.4987839 285.9589089 406.86328125 289.0546875 C407.27407173 289.97896042 407.27407173 289.97896042 407.69316101 290.92190552 C408.57237153 292.90363694 409.44261207 294.88916119 410.3125 296.875 C411.1709824 298.81802134 412.03126345 300.76023986 412.89157104 302.70245361 C413.45464944 303.97578808 414.01612078 305.24983446 414.57595825 306.52459717 C416.68835072 311.33048345 418.88842049 316.09105618 421.14135742 320.83251953 C422 323 422 323 422 326 C419.36 326 416.72 326 414 326 C411 319.375 411 319.375 411 316 C402.585 316.495 402.585 316.495 394 317 C392.68 319.97 391.36 322.94 390 326 C387.36 326 384.72 326 382 326 C384.46870423 317.67719935 388.18580381 310.07614066 392 302.3125 C392.63591897 301.00740609 393.27133906 299.70206898 393.90625 298.39648438 C396.57507282 292.91634441 399.26805056 287.44898425 402 282 Z M402 298 C401.32880451 299.4562545 400.66318193 300.91507867 400 302.375 C399.62875 303.18710937 399.2575 303.99921875 398.875 304.8359375 C397.87504987 306.91998433 397.87504987 306.91998433 398 309 C400.97 309 403.94 309 407 309 C406.54917531 307.53932801 406.08906463 306.08151968 405.625 304.625 C405.36976563 303.81289063 405.11453125 303.00078125 404.8515625 302.1640625 C404.10145717 299.83540815 404.10145717 299.83540815 402 298 Z M575 282 C578.0621243 283.53106215 578.4987839 285.9589089 579.86328125 289.0546875 C580.27407173 289.97896042 580.27407173 289.97896042 580.69316101 290.92190552 C581.57237153 292.90363694 582.44261207 294.88916119 583.3125 296.875 C584.1709824 298.81802134 585.03126345 300.76023986 585.89157104 302.70245361 C586.45464944 303.97578808 587.01612078 305.24983446 587.57595825 306.52459717 C589.68835072 311.33048345 591.88842049 316.09105618 594.14135742 320.83251953 C595 323 595 323 595 326 C592.36 326 589.72 326 587 326 C584 319.375 584 319.375 584 316 C575.585 316.495 575.585 316.495 567 317 C565.68 319.97 564.36 322.94 563 326 C560.36 326 557.72 326 555 326 C557.46870423 317.67719935 561.18580381 310.07614066 565 302.3125 C565.63591897 301.00740609 566.27133906 299.70206898 566.90625 298.39648438 C569.57507282 292.91634441 572.26805056 287.44898425 575 282 Z M575 298 C573.35 301.63 571.7 305.26 570 309 C573.3 309 576.6 309 580 309 C578.7874262 305.27566618 577.49140021 301.62197194 576 298 C575.67 298 575.34 298 575 298 Z M3.953125 286.5859375 C8.0776326 289.43531107 10.78123443 293.56246886 13 298 C13.68907285 305.50105012 14.12576241 312.24475477 9.4296875 318.453125 C5.50847385 322.6957496 1.62195431 325.69324426 -4.171875 326.37109375 C-13.06438191 326.53612936 -18.04786983 325.63386987 -24.51953125 319.578125 C-28.37309587 315.44692604 -29.91049767 311.2168192 -30.06640625 305.61328125 C-29.75307411 299.4131028 -28.2138598 294.63627606 -24 290 C-15.47608467 283.32044062 -5.95220701 281.70352208 3.953125 286.5859375 Z M-20 296 C-22.77701709 300.41545718 -22.52600805 304.94539141 -22 310 C-20.28284085 314.15733267 -17.83514301 316.66556512 -14 319 C-9.5371475 320.21264199 -6.08516478 320.36854653 -1.6875 318.875 C1.79140662 316.44785585 4.1037926 313.7924148 6 310 C6.56350726 305.38108804 6.4422879 301.90158688 4.375 297.6875 C0.57764075 293.39048822 -2.61839518 290.80366816 -8.4375 290.4375 C-13.27986936 290.65835131 -16.67790074 292.50305342 -20 296 Z M238.796875 287.43359375 C243.01097674 290.4297902 245.36050226 294.08150678 247 299 C247.68345902 306.13726486 247.96973036 312.41383202 243.56640625 318.34765625 C238.40044965 323.79703192 233.3055196 326.14660784 225.8125 326.375 C218.54340721 326.31031397 214.63812979 324.47954465 209.4765625 319.54296875 C205.60067832 315.29741932 204.20905185 311.25775995 203.6875 305.625 C204.31549769 298.34022679 206.92257612 293.19831492 212 288 C220.37830513 282.07388174 230.01791145 282.58859972 238.796875 287.43359375 Z M213.1875 297.375 C211.24245512 301.6745729 210.83098058 304.81686408 211.5 309.5 C213.44275301 314.03309035 215.71574228 316.56114362 220 319 C224.5393347 320.50510569 228.47815579 320.63468772 232.8125 318.5 C236.42763451 316.04507145 238.58509046 313.12751717 240 309 C240.79414273 304.7673011 240.32391549 301.64783097 238.375 297.75 C235.28369276 294.17059161 232.6379151 291.46412151 227.82421875 290.6171875 C221.34378257 290.29044282 217.21106253 292.10274565 213.1875 297.375 Z M283.3125 285.5625 C288.42294527 288.53222487 291.88470678 292.61732812 294.375 297.9375 C295.75526259 304.70078671 295.63178906 310.99496264 292 317 C287.8060347 321.53233193 283.34021493 325.62002846 277.046875 326.3359375 C269.26099928 326.42818721 263.32333585 326.04619894 257.4765625 320.57421875 C252.27263358 314.75363929 251.58659012 309.40693572 251.76171875 301.8671875 C252.32735411 295.06101776 255.96501668 291.78339725 260.8671875 287.515625 C267.40453039 282.87004068 275.99340608 282.28298292 283.3125 285.5625 Z M261.75 296.5625 C258.80838356 300.65975147 258.37050125 304.02695988 259 309 C260.37871584 313.12784201 262.5877578 316.0555239 266.1875 318.5 C270.5256059 320.63654038 274.45606719 320.49861629 279 319 C283.29234117 316.62984577 286.10798869 313.79426465 287.5625 309.0625 C288.27083301 304.9384278 287.67838148 301.86757472 286 298 C283.38893615 294.9079507 280.90753327 292.22808189 277 291 C270.09204886 290.45174991 266.48144928 291.17390499 261.75 296.5625 Z M375.3125 285.1875 C378.33978548 287.22915765 379.061813 288.52870808 380 292 C378.02 292.99 376.04 293.98 374 295 C373.608125 294.505 373.21625 294.01 372.8125 293.5 C370.44908285 291.54406857 368.98564997 291.75792027 366 292 C364.42726432 294.8424854 364.42726432 294.8424854 364 298 C364.58007812 298.17015625 365.16015625 298.3403125 365.7578125 298.515625 C377.20264045 302.06616568 377.20264045 302.06616568 380.13671875 306.85546875 C381.62627938 310.55577999 381.53036956 314.08342476 381 318 C379.17116688 322.11487452 377.30757968 324.15631837 373.25 325.9375 C368.74977535 327.3370112 365.56547207 327.19750087 361 326 C356.36757971 322.57603718 355.16659118 319.40874094 354 314 C357.465 313.505 357.465 313.505 361 313 C361.556875 314.2065625 361.556875 314.2065625 362.125 315.4375 C363.8109337 318.31172896 363.8109337 318.31172896 367.1875 318.8125 C368.5796875 318.9053125 368.5796875 318.9053125 370 319 C372.0528401 316.78293269 373.00314296 315.65059334 372.98828125 312.57421875 C371.53227885 308.78170657 369.23789197 308.19080154 365.625 306.5 C360.89895547 304.2784447 358.18738301 302.84294273 356 298 C355.41236863 294.05447511 355.83625119 292.31536807 357.6875 288.75 C362.44379077 283.09387043 368.51448041 282.75047411 375.3125 285.1875 Z M733 287 C737.30506148 289.80329585 740.43385839 293.05998951 742 298 C742.96165342 305.48843083 743.11963121 312.25286044 738.4296875 318.453125 C734.50847385 322.6957496 730.62195431 325.69324426 724.828125 326.37109375 C715.93561809 326.53612936 710.95213017 325.63386987 704.48046875 319.578125 C700.62690413 315.44692604 699.08950233 311.2168192 698.93359375 305.61328125 C699.31841233 297.99853777 702.02107251 292.90254473 707.4375 287.625 C715.52382441 282.49708696 724.71087286 282.44910667 733 287 Z M709 296 C706.07633619 300.63651735 706.14056665 305.70887991 707 311 C709.02252952 314.81507241 711.72695956 317.17424404 715.3125 319.5 C719.97505595 320.36745227 724.60560888 320.3138714 728.84375 317.98828125 C732.12491637 315.43894365 734.06328867 313.0278587 735 309 C735.45122245 304.2621643 735.50652977 302.01305955 733.375 297.75 C730.28440805 294.17141985 727.64267645 291.51599704 722.859375 290.58203125 C717.06689679 290.21753857 713.01687123 291.77171449 709 296 Z M-128 285 C-120.41 285 -112.82 285 -105 285 C-105 286.98 -105 288.96 -105 291 C-110.28 291 -115.56 291 -121 291 C-121 293.97 -121 296.94 -121 300 C-115.72 300 -110.44 300 -105 300 C-105 302.31 -105 304.62 -105 307 C-110.28 307 -115.56 307 -121 307 C-121 310.96 -121 314.92 -121 319 C-115.72 319 -110.44 319 -105 319 C-105 321.31 -105 323.62 -105 326 C-112.59 326 -120.18 326 -128 326 C-128 312.47 -128 298.94 -128 285 Z M-98 285 C-95.69 285 -93.38 285 -91 285 C-90.98541748 285.82201904 -90.97083496 286.64403809 -90.95581055 287.4909668 C-90.88123667 291.22361323 -90.78460488 294.95537459 -90.6875 298.6875 C-90.66494141 299.98107422 -90.64238281 301.27464844 -90.61914062 302.60742188 C-90.58369141 303.85458984 -90.54824219 305.10175781 -90.51171875 306.38671875 C-90.48553467 307.53358154 -90.45935059 308.68044434 -90.43237305 309.86206055 C-89.95622499 313.3176963 -89.11960355 315.24686528 -87 318 C-83.77619834 319.02887287 -81.89456729 319.31430743 -78.6875 318.1875 C-76.84902178 317.09312675 -76.84902178 317.09312675 -76 315 C-75.84504237 312.75025839 -75.74989072 310.49628464 -75.68359375 308.2421875 C-75.66281265 307.57913605 -75.64203156 306.91608459 -75.62062073 306.23294067 C-75.55520769 304.11373306 -75.49627895 301.994401 -75.4375 299.875 C-75.39430691 298.43878919 -75.35069236 297.00259098 -75.30664062 295.56640625 C-75.19953501 292.04440406 -75.09824425 288.52226175 -75 285 C-72.69 285 -70.38 285 -68 285 C-67.90067724 289.44736742 -67.82831997 293.89413713 -67.78027344 298.34228516 C-67.76023209 299.85346736 -67.73299095 301.36457272 -67.69824219 302.87548828 C-67.64938891 305.05520643 -67.62695776 307.23389431 -67.609375 309.4140625 C-67.58842773 310.7232666 -67.56748047 312.0324707 -67.54589844 313.38134766 C-68.07626983 317.6077803 -69.35216609 319.70762957 -72 323 C-77.22259857 327.05630398 -82.65340142 326.77397544 -89 326 C-93.59486092 323.82348693 -95.80697204 321.53304171 -98 317 C-98.34057617 313.49487305 -98.34057617 313.49487305 -98.29296875 309.51171875 C-98.28872391 308.80852005 -98.28447906 308.10532135 -98.28010559 307.3808136 C-98.2634006 305.14930869 -98.22576614 302.91872887 -98.1875 300.6875 C-98.17244248 299.1686329 -98.15875594 297.64975154 -98.14648438 296.13085938 C-98.11352473 292.42027566 -98.06180016 288.71022822 -98 285 Z M-59 285 C-44 285 -44 285 -38 288 C-35.05100698 292.32518976 -34.3524526 295.81962079 -35 301 C-36.75 304.375 -36.75 304.375 -39 307 C-41.140625 307.6640625 -41.140625 307.6640625 -43 308 C-42.66677734 308.47421387 -42.33355469 308.94842773 -41.99023438 309.43701172 C-40.48864696 311.57966145 -38.99425818 313.72723333 -37.5 315.875 C-36.97535156 316.62136719 -36.45070312 317.36773437 -35.91015625 318.13671875 C-35.41386719 318.85214844 -34.91757813 319.56757813 -34.40625 320.3046875 C-33.94541016 320.96452637 -33.48457031 321.62436523 -33.00976562 322.30419922 C-32 324 -32 324 -32 326 C-35.03509424 326.39246908 -37.06345328 326.63722533 -40 326 C-42.55894766 323.87246846 -44.21671406 321.28795407 -46 318.5 C-46.48855469 317.78457031 -46.97710937 317.06914062 -47.48046875 316.33203125 C-48.67797726 314.57098933 -49.84237366 312.78751127 -51 311 C-51.33 315.95 -51.66 320.9 -52 326 C-54.31 326 -56.62 326 -59 326 C-59 312.47 -59 298.94 -59 285 Z M-52 291 C-52 294.96 -52 298.92 -52 303 C-46.34379856 303.5547002 -46.34379856 303.5547002 -43.5625 301.375 C-41.72315857 299.03852041 -41.72315857 299.03852041 -41.9375 295.875 C-42.7163515 292.84048102 -42.7163515 292.84048102 -45.3125 291.625 C-48.1894691 290.848991 -48.1894691 290.848991 -52 291 Z M20 285 C35 285 35 285 40 288 C42.73004414 290.88570456 43.45074685 292.92243474 43.5 296.875 C43.39804712 300.50774201 42.97398424 302.70957556 40.6875 305.5625 C35.91952243 309.88694477 34.03701133 309 27 309 C27 314.61 27 320.22 27 326 C24.69 326 22.38 326 20 326 C20 312.47 20 298.94 20 285 Z M27 291 C27 294.96 27 298.92 27 303 C32.01535052 302.67039784 32.01535052 302.67039784 36 300 C36.58345476 297.04253508 36.58345476 297.04253508 36 294 C32.75566237 291.29638531 31.29107948 291 27 291 Z M48 285 C55.92 285 63.84 285 72 285 C72 286.98 72 288.96 72 291 C66.72 291 61.44 291 56 291 C56 293.97 56 296.94 56 300 C60.95 300 65.9 300 71 300 C71 302.31 71 304.62 71 307 C66.05 307 61.1 307 56 307 C56 310.96 56 314.92 56 319 C61.28 319 66.56 319 72 319 C72 321.31 72 323.62 72 326 C64.08 326 56.16 326 48 326 C48 312.47 48 298.94 48 285 Z M179 285 C185.93 285 192.86 285 200 285 C200 286.98 200 288.96 200 291 C195.38 291 190.76 291 186 291 C186 293.97 186 296.94 186 300 C190.62 300 195.24 300 200 300 C200 302.31 200 304.62 200 307 C195.38 307 190.76 307 186 307 C186 313.27 186 319.54 186 326 C183.69 326 181.38 326 179 326 C179 312.47 179 298.94 179 285 Z M301 285 C319 285 319 285 327 289 C331.80391003 294.0567474 333.29006253 297.9193855 333.3125 304.875 C333.32925781 306.06867188 333.34601562 307.26234375 333.36328125 308.4921875 C332.81059694 313.82885961 330.84033186 317.77130655 326.75 321.25 C325.93789063 321.96929687 325.93789063 321.96929687 325.109375 322.703125 C317.4242805 327.42803495 309.94971614 326 301 326 C301 312.47 301 298.94 301 285 Z M308 292 C308 300.91 308 309.82 308 319 C316.0949776 319 317.71140642 318.92319429 323.25 314 C325.64452783 311.26339676 325.97787708 309.29312865 326.25 305.6875 C325.88003878 300.23057197 324.42741281 297.29146873 320.375 293.625 C316.27280266 291.34927657 316.27280266 291.34927657 308 292 Z M426 285 C432.93 285 439.86 285 447 285 C447 286.98 447 288.96 447 291 C442.38 291 437.76 291 433 291 C433 293.97 433 296.94 433 300 C437.62 300 442.24 300 447 300 C447 302.31 447 304.62 447 307 C442.38 307 437.76 307 433 307 C433 313.27 433 319.54 433 326 C430.69 326 428.38 326 426 326 C426 312.47 426 298.94 426 285 Z M453 285 C460.59 285 468.18 285 476 285 C476 286.98 476 288.96 476 291 C470.72 291 465.44 291 460 291 C460 293.97 460 296.94 460 300 C465.28 300 470.56 300 476 300 C476 302.31 476 304.62 476 307 C470.72 307 465.44 307 460 307 C460 310.96 460 314.92 460 319 C465.28 319 470.56 319 476 319 C476 321.31 476 323.62 476 326 C468.41 326 460.82 326 453 326 C453 312.47 453 298.94 453 285 Z M479 285 C487.25 285 495.5 285 504 285 C504 286.98 504 288.96 504 291 C501.03 291 498.06 291 495 291 C495 302.55 495 314.1 495 326 C492.69 326 490.38 326 488 326 C488 314.45 488 302.9 488 291 C485.03 291 482.06 291 479 291 C479 289.02 479 287.04 479 285 Z M506 285 C509.250112 284.2040542 511.78631245 283.97284037 515 285 C518.1104437 288.75281795 522 293.94974619 522 299 C522.66 299 523.32 299 524 299 C524.3403125 298.0409375 524.3403125 298.0409375 524.6875 297.0625 C526.48565826 292.86679739 528.73904021 288.96099444 531 285 C533.64 285 536.28 285 539 285 C538.01543175 288.62321116 536.73518605 291.57865663 534.65234375 294.671875 C527.5853733 305.20251428 525.49720553 313.35619798 526 326 C523.69 326 521.38 326 519 326 C519.06703125 324.87207031 519.1340625 323.74414062 519.203125 322.58203125 C519.51487066 308.55498278 514.7019714 299.30323657 507.08569336 287.73974609 C506 286 506 286 506 285 Z M597 285 C599.64 285 602.28 285 605 285 C605.01981934 285.89307861 605.03963867 286.78615723 605.06005859 287.70629883 C605.13818698 291.02200708 605.22487971 294.33726162 605.31738281 297.65258789 C605.35564866 299.08707068 605.39050581 300.52164865 605.421875 301.95629883 C605.46757862 304.01938878 605.52556193 306.08182495 605.5859375 308.14453125 C605.6173584 309.38565674 605.6487793 310.62678223 605.68115234 311.90551758 C605.77399209 315.16636101 605.77399209 315.16636101 608 318 C612.81154374 319.25890636 612.81154374 319.25890636 617.375 317.75 C620.44543297 314.44337988 620.17998563 310.88902511 620.31640625 306.58203125 C620.35830078 305.32841797 620.40019531 304.07480469 620.44335938 302.78320312 C620.48267578 301.47287109 620.52199219 300.16253906 620.5625 298.8125 C620.60570992 297.47720022 620.649325 296.14191348 620.69335938 294.80664062 C620.79956502 291.53786703 620.90160997 288.26901667 621 285 C623.31 285 625.62 285 628 285 C628.07453622 289.1625612 628.12878254 293.3247618 628.16479492 297.48779297 C628.17981825 298.90192437 628.20024305 300.31600968 628.22631836 301.72998047 C628.26298954 303.77062397 628.27979036 305.81064792 628.29296875 307.8515625 C628.3086792 309.07697754 628.32438965 310.30239258 628.34057617 311.56494141 C627.7733868 317.28562556 625.36265717 321.31900801 621 325 C615.58807433 326.80397522 609.37447995 326.95989615 604.0625 324.8125 C600.73484844 321.88820014 598.40918657 319.22755972 597 315 C596.91621372 312.7161483 596.89270085 310.429899 596.90234375 308.14453125 C596.9037587 307.48289474 596.90517365 306.82125824 596.90663147 306.13957214 C596.91222004 304.03050172 596.92477035 301.92153823 596.9375 299.8125 C596.94251648 298.38086091 596.94707913 296.94922015 596.95117188 295.51757812 C596.9621857 292.01168412 596.97944245 288.5058525 597 285 Z M633 285 C641.25 285 649.5 285 658 285 C658 286.98 658 288.96 658 291 C655.03 291 652.06 291 649 291 C649 302.55 649 314.1 649 326 C646.69 326 644.38 326 642 326 C642 314.45 642 302.9 642 291 C639.03 291 636.06 291 633 291 C633 289.02 633 287.04 633 285 Z M662 285 C664.31 285 666.62 285 669 285 C669 289.95 669 294.9 669 300 C674.61 300 680.22 300 686 300 C686 295.05 686 290.1 686 285 C688.31 285 690.62 285 693 285 C693 298.53 693 312.06 693 326 C690.69 326 688.38 326 686 326 C686 319.73 686 313.46 686 307 C680.39 307 674.78 307 669 307 C669 313.27 669 319.54 669 326 C666.69 326 664.38 326 662 326 C662 312.47 662 298.94 662 285 Z M749 285 C764 285 764 285 770 289 C772.82792793 293.2418919 772.78122286 297.01873743 772 302 C770.31987353 305.12291165 768.21670326 307.39164837 765 309 C765.33322266 309.4439209 765.66644531 309.8878418 766.00976562 310.34521484 C767.51145718 312.35149576 769.00579094 314.36314112 770.5 316.375 C771.28697266 317.42300781 771.28697266 317.42300781 772.08984375 318.4921875 C772.83427734 319.49765625 772.83427734 319.49765625 773.59375 320.5234375 C774.05458984 321.14138184 774.51542969 321.75932617 774.99023438 322.39599609 C776 324 776 324 776 326 C772.88673027 326.46293974 770.09945924 326.61667997 767 326 C764.48076924 323.89148951 763.03352881 321.34364684 761.4375 318.5 C761.00115234 317.78457031 760.56480469 317.06914062 760.11523438 316.33203125 C759.0475521 314.57211542 758.01967598 312.78815829 757 311 C756.67 315.95 756.34 320.9 756 326 C753.69 326 751.38 326 749 326 C749 312.47 749 298.94 749 285 Z M756 291 C756 294.96 756 298.92 756 303 C760.93633946 302.70013874 760.93633946 302.70013874 765.0625 300.25 C766.24730883 297.98796815 766.24730883 297.98796815 765.5 295.375 C763.64249754 292.43395444 762.31701153 291.88992992 759 291 C758.01 291 757.02 291 756 291 Z M781 285 C783.31 285 785.62 285 788 285 C788 298.53 788 312.06 788 326 C785.69 326 783.38 326 781 326 C781 312.47 781 298.94 781 285 Z M792 285 C800.58 285 809.16 285 818 285 C818 286.98 818 288.96 818 291 C815.03 291 812.06 291 809 291 C809 302.55 809 314.1 809 326 C806.69 326 804.38 326 802 326 C802 314.45 802 302.9 802 291 C798.7 291 795.4 291 792 291 C792 289.02 792 287.04 792 285 Z M820 285 C824.93264249 283.85492228 824.93264249 283.85492228 828 285 C831.23527953 289.04956441 833.62640284 293.40431187 836 298 C838.49538639 295.00658482 840.49815666 292.15850304 842.25 288.6875 C843.49609375 286.60546875 843.49609375 286.60546875 845 285 C847.94877907 284.28065166 849.93027815 284.58376653 853 285 C852.13056189 286.79437226 851.25406086 288.58532225 850.375 290.375 C849.83230469 291.48488281 849.28960938 292.59476562 848.73046875 293.73828125 C847.2232006 296.57929458 845.57743843 298.97699102 843.6875 301.5625 C839.16642985 308.72774695 840.0168271 317.80520358 840 326 C837.69 326 835.38 326 833 326 C833.06703125 324.94425781 833.1340625 323.88851562 833.203125 322.80078125 C833.52563399 309.1650388 828.46353316 300.08738495 821.08569336 288.86914062 C820 287 820 287 820 285 Z " fill="#274886" transform="translate(220,126)"/>
</svg>
