<?xml version="1.0" encoding="UTF-8"?>
<svg version="1.1" xmlns="http://www.w3.org/2000/svg" width="2400" height="2400">
<path d="M0 0 C244.58689688 -0.08075728 244.58689688 -0.08075728 338.32179165 -0.09632993 C363.57518318 -0.10053601 388.82857469 -0.10485471 414.08196615 -0.10945851 C416.30322092 -0.1098623 418.52447569 -0.11026266 420.74573046 -0.11066218 C454.73506975 -0.11678836 488.7244076 -0.1245831 522.71374512 -0.1373291 C523.80906692 -0.1377398 523.80906692 -0.1377398 524.92651643 -0.13815879 C536.69876956 -0.1425832 548.47102263 -0.14715055 560.24327569 -0.15173688 C594.17574718 -0.16495439 628.10821756 -0.17710455 662.04069138 -0.18227959 C663.08871757 -0.18244019 663.08871757 -0.18244019 664.15791601 -0.18260404 C679.50052297 -0.18493627 694.84312995 -0.18672566 710.18573704 -0.18800197 C716.36030287 -0.18852516 722.53486869 -0.18912641 728.70943451 -0.18975449 C729.38518841 -0.18982134 730.06094232 -0.18988819 730.75717361 -0.18995707 C752.48320507 -0.19214525 774.2092283 -0.20067129 795.93525645 -0.21256442 C818.45551151 -0.22486221 840.97575873 -0.2300201 863.49601725 -0.22700275 C876.46536563 -0.22548549 889.43468421 -0.22950227 902.40402719 -0.24159509 C911.08476729 -0.24913361 919.76548804 -0.24930025 928.44622952 -0.24366363 C933.38132447 -0.24066454 938.31636335 -0.24068866 943.25145212 -0.24976636 C969.22598787 -0.29476903 995.03519629 0.13037262 1020.8125 3.75 C1022.03710938 3.91918945 1023.26171875 4.08837891 1024.5234375 4.26269531 C1069.50700955 10.70362895 1113.77743288 22.71237685 1155 42 C1155.98548828 42.45310547 1156.97097656 42.90621094 1157.98632812 43.37304688 C1194.88926754 60.36751487 1230.34508425 81.76076219 1261.0859375 108.48828125 C1263.88112995 110.89754231 1266.73780549 113.2024438 1269.625 115.5 C1274.57031123 119.51671567 1279.01404665 123.91383502 1283.4609375 128.4609375 C1285.51553073 130.51553073 1287.58037201 132.39780869 1289.8125 134.25 C1295.81295505 139.37564538 1301.00800231 145.37089211 1306.32958984 151.18115234 C1307.79014175 152.77149313 1309.26085255 154.35114602 1310.73828125 155.92578125 C1316.72212804 162.36772158 1322.17881852 169.12231126 1327.52734375 176.09033203 C1329.03708 178.04808352 1330.5640426 179.99141848 1332.09375 181.93359375 C1344.24946633 197.46496904 1355.19318856 213.88892683 1365 231 C1365.38575195 231.66999023 1365.77150391 232.33998047 1366.16894531 233.03027344 C1369.19459028 238.30993872 1372.12562042 243.63657825 1375 249 C1375.43038574 249.80195801 1375.86077148 250.60391602 1376.30419922 251.43017578 C1396.03196375 288.58157217 1410.31412059 329.65008897 1418 371 C1418.66 371 1419.32 371 1420 371 C1421.30996948 369.24199829 1421.30996948 369.24199829 1422.58203125 366.92578125 C1423.35123901 365.59981934 1423.35123901 365.59981934 1424.13598633 364.24707031 C1424.68923584 363.27866211 1425.24248535 362.31025391 1425.8125 361.3125 C1426.99816991 359.27107139 1428.18571538 357.23073113 1429.375 355.19140625 C1429.98085937 354.15129395 1430.58671875 353.11118164 1431.2109375 352.03955078 C1433.84348957 347.56694253 1436.56792695 343.15449015 1439.3125 338.75 C1440.10829468 337.47068604 1440.10829468 337.47068604 1440.92016602 336.16552734 C1442.02994016 334.3817913 1443.14005491 332.59826713 1444.25048828 330.81494141 C1453.45020971 316.01271031 1462.53681798 301.14151305 1471.56863403 286.2364502 C1477.40180647 276.61130744 1483.28444983 267.01759306 1489.19140625 257.4375 C1493.4841946 250.47232365 1497.75222656 243.49271143 1502 236.5 C1506.90856245 228.41949352 1511.85038178 220.36022389 1516.8125 212.3125 C1522.41160755 203.2302267 1527.97095343 194.12499476 1533.5 185 C1539.68861779 174.78646606 1545.9236513 164.60274779 1552.19140625 154.4375 C1556.48419468 147.47232352 1560.75221007 140.49270151 1565 133.5 C1570.6444077 124.20858518 1576.33524682 114.94644816 1582.0390625 105.69140625 C1586.95996884 97.70205831 1591.84598937 89.69212467 1596.7175293 81.67260742 C1601.05613516 74.53620327 1605.42926409 67.42156241 1609.8125 60.3125 C1615.55305775 50.99854489 1621.26017883 41.66509685 1626.9375 32.3125 C1627.61079346 31.20366455 1628.28408691 30.0948291 1628.9777832 28.95239258 C1629.63351318 27.87111084 1630.28924316 26.7898291 1630.96484375 25.67578125 C1631.9244208 24.16303493 1631.9244208 24.16303493 1632.90338326 22.61972809 C1634.38964572 20.18584772 1635.51125361 17.80608149 1636.5187664 15.14063263 C1638.31797392 10.79714124 1640.28513762 6.99245897 1644 4 C1651.4793364 1.06948692 1660.11952998 1.84517006 1668.00830078 1.90039062 C1670.47796714 1.86367142 1672.94754772 1.82073542 1675.41700745 1.77206421 C1681.41966853 1.67257431 1687.41870183 1.64407205 1693.42186542 1.65300363 C1698.30549567 1.65955836 1703.18837589 1.64043953 1708.07186508 1.6033783 C1709.48193635 1.59288149 1710.89200768 1.5823935 1712.30207908 1.5719142 C1713.00407081 1.56669656 1713.70606255 1.56147892 1714.42932676 1.55610317 C1727.69118059 1.46169551 1740.95165034 1.46680554 1754.21370088 1.5009498 C1766.32021149 1.52880208 1778.42142338 1.42482045 1790.52669586 1.25914747 C1802.98137423 1.09002788 1815.4335212 1.01467261 1827.88936794 1.0377326 C1834.8730746 1.0489187 1841.85184435 1.02269445 1848.83456802 0.89826965 C1894.10556266 0.13300066 1894.10556266 0.13300066 1902.30684268 7.94723356 C1906.89577036 13.25024937 1909.31292631 19.40970717 1911.15058136 26.12574577 C1912.29917028 30.01232937 1914.08170835 32.81750942 1916.3671875 36.14453125 C1917.24600586 37.56668945 1917.24600586 37.56668945 1918.14257812 39.01757812 C1918.71427734 39.93990234 1919.28597656 40.86222656 1919.875 41.8125 C1925.45706575 50.85091902 1930.99574615 59.9141111 1936.5 69 C1942.68837079 79.2136821 1948.92365292 89.39725484 1955.19140625 99.5625 C1960.06303876 107.46686817 1964.89772224 115.39301078 1969.71826172 123.32861328 C1974.05663845 130.46460051 1978.42942911 137.57889381 1982.8125 144.6875 C1988.77245385 154.35509956 1994.68353833 164.05103684 2000.56890869 173.76409912 C2006.40200089 183.38905118 2012.28455736 192.98258134 2018.19140625 202.5625 C2023.06303876 210.46686817 2027.89772224 218.39301078 2032.71826172 226.32861328 C2037.05663845 233.46460051 2041.42942911 240.57889381 2045.8125 247.6875 C2051.77348058 257.35676501 2057.68566516 267.05432584 2063.57192993 276.76913452 C2069.33084555 286.27200935 2075.14022089 295.74271803 2080.97387695 305.19995117 C2085.91398487 313.21614746 2090.80858208 321.25900365 2095.6875 329.3125 C2100.5865348 337.39909717 2105.5087951 345.46985225 2110.5 353.5 C2115.86100961 362.1251116 2121.13942744 370.79912328 2126.40136719 379.48486328 C2131.56734919 388.01081478 2136.76629023 396.51536994 2142 405 C2147.53738131 413.97767322 2153.03399422 422.97879513 2158.5 432 C2164.68858326 442.21355462 2170.92365154 452.39725259 2177.19140625 462.5625 C2182.06303876 470.46686817 2186.89772224 478.39301078 2191.71826172 486.32861328 C2196.05663845 493.46460051 2200.42942911 500.57889381 2204.8125 507.6875 C2210.77348058 517.35676501 2216.68566516 527.05432584 2222.57192993 536.76913452 C2228.33084555 546.27200935 2234.14022089 555.74271803 2239.97387695 565.19995117 C2244.91398487 573.21614746 2249.80858208 581.25900365 2254.6875 589.3125 C2259.5865348 597.39909717 2264.5087951 605.46985225 2269.5 613.5 C2274.86100961 622.1251116 2280.13942744 630.79912328 2285.40136719 639.48486328 C2291.2099406 649.07134949 2297.06739967 658.62654312 2302.95336914 668.16577148 C2306.53624842 673.97845211 2310.101094 679.80147942 2313.640625 685.640625 C2314.0269812 686.27794556 2314.4133374 686.91526611 2314.81140137 687.57189941 C2316.68256668 690.65982376 2318.55155339 693.74904628 2320.41796875 696.83984375 C2321.08957031 697.94972656 2321.76117187 699.05960938 2322.453125 700.203125 C2323.04254883 701.17926758 2323.63197266 702.15541016 2324.23925781 703.16113281 C2326.00096644 706.09405197 2326.00096644 706.09405197 2328.28417969 709.04980469 C2330 712 2330 712 2329.9375 714.53686523 C2328.86148518 717.36392603 2327.55917592 719.8153645 2326 722.41015625 C2325.05362671 723.99654907 2325.05362671 723.99654907 2324.08813477 725.61499023 C2323.39228917 726.76428086 2322.69623831 727.91344723 2322 729.0625 C2321.27670574 730.26797674 2320.55397858 731.4737939 2319.83178711 732.67993164 C2317.56494631 736.45961652 2315.28311103 740.23012904 2313 744 C2312.28390994 745.18450564 2311.56792454 746.36907456 2310.85205078 747.55371094 C2305.57089934 756.28955437 2300.26231303 765.00863881 2294.94854736 773.72467041 C2292.50549286 777.73197566 2290.06394934 781.74019473 2287.625 785.75 C2287.27768829 786.32096405 2286.93037659 786.8919281 2286.57254028 787.48019409 C2280.4064677 797.62389547 2274.33911813 807.82464711 2268.2925415 818.03991699 C2262.41334244 827.97038137 2256.46565015 837.85577529 2250.45800781 847.70898438 C2244.32693352 857.7687639 2238.29882477 867.8871804 2232.30105591 878.0269165 C2228.02932439 885.2472759 2223.74116813 892.45581105 2219.37109375 899.6171875 C2218.9953421 900.23329895 2218.61959045 900.8494104 2218.23245239 901.48419189 C2216.4794954 904.35620051 2214.72183354 907.22508579 2212.95703125 910.08984375 C2207.34160033 919.26322989 2202.2411131 928.56599641 2197 938 C2004.28 938 1811.56 938 1613 938 C1613 902.03 1613 866.06 1613 829 C1825.85 829 2038.7 829 2258 829 C2246.3025354 808.68335643 2246.3025354 808.68335643 2234.33203125 788.5390625 C2230.16652422 781.62960015 2226.05383912 774.68881827 2221.9375 767.75 C2221.12101503 766.37394048 2220.30452738 764.99788255 2219.48803711 763.62182617 C2218.24382967 761.5247892 2216.99968954 759.42771237 2215.75569153 757.33055115 C2212.87761184 752.47863709 2209.99795525 747.62766225 2207.1171875 742.77734375 C2199.09056162 729.26275708 2191.06900264 715.74520886 2183.05786133 702.22143555 C2177.87751234 693.47762461 2172.68968005 684.73827486 2167.5 676 C2158.34339994 660.5820248 2149.20065929 645.15587369 2140.06152344 629.72753906 C2131.80943714 615.7972216 2123.55029471 601.87113894 2115.28256226 587.95010376 C2109.20178239 577.71124121 2103.12785561 567.46835183 2097.05859375 557.22265625 C2091.87798495 548.47844776 2086.68994872 539.73866716 2081.5 531 C2075.66167454 521.16961713 2069.82718534 511.33699208 2064 501.5 C2058.23456514 491.76762225 2052.46318229 482.03879887 2046.6875 472.3125 C2046.29130463 471.64529938 2045.89510925 470.97809875 2045.48690796 470.29067993 C2042.65810616 465.52702046 2039.82907813 460.76349537 2037 456 C2024.6759141 435.2491676 2012.36184738 414.4924688 2000.06152344 393.72753906 C1989.05320826 375.14444146 1978.02926799 356.57066669 1967 338 C1963.7706794 332.56259141 1960.54145651 327.12512482 1957.3125 321.6875 C1956.91606293 321.01989655 1956.51962585 320.35229309 1956.11117554 319.66445923 C1950.08757531 309.52023276 1944.07079317 299.37199013 1938.05786133 289.22143555 C1932.87751236 280.47762466 1927.68970641 271.73825917 1922.5 263 C1916.01329817 252.07790205 1909.53289529 241.15211097 1903.05859375 230.22265625 C1897.87798495 221.47844776 1892.68994872 212.73866716 1887.5 204 C1881.01329817 193.07790205 1874.53289529 182.15211097 1868.05859375 171.22265625 C1862.87798495 162.47844776 1857.68994872 153.73866716 1852.5 145 C1846.01329817 134.07790205 1839.53289529 123.15211097 1833.05859375 112.22265625 C1827.87798495 103.47844776 1822.68994872 94.73866716 1817.5 86 C1812.30891798 77.25942462 1807.11939263 68.51794612 1801.93823242 59.77148438 C1800.65512844 57.60577165 1799.37144529 55.44040196 1798.0871582 53.27539062 C1794.78446534 47.70684375 1791.48870349 42.13443981 1788.20602417 36.55407715 C1786.46289896 33.59240536 1784.71618005 30.63286164 1782.96899414 27.67358398 C1782.12099377 26.23526291 1781.27461372 24.7959852 1780.42993164 23.35571289 C1779.25299 21.34925847 1778.0704755 19.34618904 1776.88671875 17.34375 C1776.5374382 16.74506104 1776.18815765 16.14637207 1775.82829285 15.52954102 C1774.13733616 12.68167931 1772.49952061 10.19418006 1770 8 C1769.23091309 9.29695801 1769.23091309 9.29695801 1768.44628906 10.62011719 C1751.23673702 39.63837816 1751.23673702 39.63837816 1743.62866211 52.27832031 C1740.61618253 57.28968685 1737.62455664 62.31304432 1734.64453125 67.34375 C1734.25549622 68.0004216 1733.86646118 68.6570932 1733.46563721 69.33366394 C1733.06947205 70.00239029 1732.67330688 70.67111664 1732.26513672 71.36010742 C1731.4476109 72.74008332 1730.63006515 74.12004741 1729.8125 75.5 C1729.40565979 76.18671783 1728.99881958 76.87343567 1728.57965088 77.58096313 C1722.56265918 87.73250002 1716.47123248 97.83547693 1710.32461548 107.90893555 C1704.58708272 117.31845592 1698.9871818 126.8025909 1693.43695068 136.32357788 C1687.87466597 145.86081754 1682.19192778 155.3173995 1676.4375 164.73974609 C1671.02696949 173.60396543 1665.72998422 182.5281737 1660.5 191.5 C1654.90387914 201.09882019 1649.22347375 210.63937448 1643.4375 220.125 C1635.89534227 232.49222741 1628.48781358 244.93584949 1621.12158203 257.40869141 C1617.27455933 263.92185191 1613.42080293 270.43101593 1609.5625 276.9375 C1609.16293091 277.61144806 1608.76336182 278.28539612 1608.35168457 278.97976685 C1602.40906594 288.99808188 1596.39037887 298.96740248 1590.32351685 308.91085815 C1584.58633498 318.31972968 1578.98681091 327.80322714 1573.43695068 337.32357788 C1567.87466597 346.86081754 1562.19192778 356.3173995 1556.4375 365.73974609 C1551.02696949 374.60396543 1545.72998422 383.5281737 1540.5 392.5 C1534.90387914 402.09882019 1529.22347375 411.63937448 1523.4375 421.125 C1515.89534227 433.49222741 1508.48781358 445.93584949 1501.12158203 458.40869141 C1497.27455933 464.92185191 1493.42080293 471.43101593 1489.5625 477.9375 C1489.16293091 478.61144806 1488.76336182 479.28539612 1488.35168457 479.97976685 C1482.40906594 489.99808188 1476.39037887 499.96740248 1470.32351685 509.91085815 C1464.58633498 519.31972968 1458.98681091 528.80322714 1453.43695068 538.32357788 C1447.87466597 547.86081754 1442.19192778 557.3173995 1436.4375 566.73974609 C1431.02697065 575.60396352 1425.72989754 584.52812431 1420.5 593.5 C1414.84304952 603.20394368 1409.09822392 612.84757218 1403.25 622.4375 C1396.6418863 633.27504524 1390.13692643 644.16824505 1383.70263672 655.10986328 C1380.48001321 660.58009802 1377.23874215 666.03929887 1374 671.5 C1369.59399676 678.92913478 1365.19480712 686.36213537 1360.81274414 693.80541992 C1358.70765551 697.37651289 1356.59400445 700.94247592 1354.47753906 704.50683594 C1353.51527039 706.13054507 1352.55612272 707.75610918 1351.60058594 709.38378906 C1340.97854109 727.45882871 1328.40800467 743.91383344 1315 760 C1314.51934082 760.57975586 1314.03868164 761.15951172 1313.54345703 761.75683594 C1305.3135832 771.67131978 1296.81945284 781.34236444 1287.60546875 790.359375 C1285.83312063 792.17053366 1284.20268284 794.06863863 1282.5625 796 C1279.6404108 799.39066475 1276.50169759 802.27219551 1273.08984375 805.16015625 C1270.84368644 807.13761436 1268.77339653 809.22961266 1266.6875 811.375 C1262.68170045 815.4286504 1258.43682801 819.01393625 1253.98828125 822.5703125 C1251.90429824 824.26474052 1249.87001697 825.96997704 1247.85546875 827.7421875 C1217.7646989 854.20675929 1182.88927807 875.64779336 1146.90673828 893.07324219 C1144.98260678 894.00845386 1143.06767629 894.96098299 1141.15234375 895.9140625 C1084.35281331 923.79746835 1019.73371797 937.25521064 956.63693237 937.12025452 C955.07872186 937.12069212 953.52051143 937.1215705 951.96230137 937.12284368 C947.73877138 937.12505146 943.51526735 937.12111915 939.29174066 937.11606562 C934.7153272 937.11170711 930.13891495 937.11321134 925.5625 937.1139679 C917.65285781 937.11448974 909.74322393 937.11137862 901.83358383 937.10573006 C890.39787171 937.09756876 878.96216357 937.09499511 867.52644886 937.09374207 C848.9683139 937.09155879 830.41018335 937.08491842 811.85205078 937.07543945 C793.83512392 937.06624655 775.81819827 937.05917492 757.80126953 937.05493164 C756.13265855 937.05453756 756.13265855 937.05453756 754.43033825 937.05413551 C748.84916703 937.05283038 743.2679958 937.05156669 737.68682456 937.05032361 C691.45787998 937.03997357 645.22894022 937.02237505 599 937 C598.91686671 850.58317264 598.91686671 850.58317264 598.93359375 811.72265625 C598.93406857 810.55648687 598.9345434 809.39031748 598.93503261 808.18880963 C598.97152004 724.00243713 599.24835296 639.81628538 599.49097854 555.6303131 C599.50002635 552.49085647 599.50906477 549.35139981 599.51810217 546.21194315 C599.62569159 508.85238405 599.73495935 471.4928299 599.84754944 434.13328552 C599.85117168 432.93132956 599.85117168 432.93132956 599.85486709 431.70509166 C599.90282442 415.80339316 599.9514909 399.90169684 600 384 C637.29 384 674.58 384 713 384 C713 530.19 713 676.38 713 827 C754.12625 826.87625 795.2525 826.7525 837.625 826.625 C850.56025879 826.59100098 863.49551758 826.55700195 876.82275391 826.52197266 C888.52458641 826.48201673 888.52458641 826.48201673 900.22640991 826.43954468 C905.39591999 826.42084863 910.56542167 826.40728037 915.73495483 826.39730835 C964.18909859 826.72929293 964.18909859 826.72929293 1012.3125 821.75 C1012.96158325 821.6442868 1013.6106665 821.53857361 1014.27941895 821.42965698 C1027.35665927 819.29797778 1040.20902902 816.44589708 1053 813 C1053.84320801 812.77763672 1054.68641602 812.55527344 1055.55517578 812.32617188 C1101.88055574 799.94810425 1146.03826482 776.43256639 1183 746 C1183.54849609 745.54915039 1184.09699219 745.09830078 1184.66210938 744.63378906 C1200.38442476 731.64859424 1216.00768229 717.77445643 1229 702 C1229.44102051 701.47277344 1229.88204102 700.94554687 1230.33642578 700.40234375 C1292.0243083 626.57619937 1322.87381485 532.66194484 1314.98657227 436.60424805 C1308.4444139 365.72274889 1281.31058573 295.49720573 1235 241 C1234.18402344 240.01128906 1233.36804687 239.02257812 1232.52734375 238.00390625 C1217.66414719 220.04965404 1201.34878663 203.4073927 1183 189 C1182.10152344 188.27167969 1181.20304687 187.54335938 1180.27734375 186.79296875 C1150.28004819 162.96112524 1116.00271529 143.97758099 1080 131 C1079.0522168 130.65485352 1078.10443359 130.30970703 1077.12792969 129.95410156 C1052.82642774 121.19569223 1027.63567285 115.19159908 1002 112 C1001.36632341 111.91769861 1000.73264683 111.83539722 1000.07976792 111.75060184 C982.75169372 109.56905819 965.39500059 109.70513658 947.96542133 109.72052841 C943.48537457 109.72225239 939.00534994 109.71234002 934.52531272 109.70397437 C926.69198006 109.69091575 918.85866889 109.68512042 911.02532578 109.68421364 C899.37762335 109.68283174 887.72995265 109.67001308 876.0822609 109.6549259 C856.48445197 109.62986119 836.88664574 109.61396011 817.28882408 109.60334396 C797.89416614 109.5928077 778.49951842 109.5781603 759.10486794 109.55806351 C757.29369165 109.55619021 757.29369165 109.55619021 755.44592594 109.55427906 C749.31349484 109.54791501 743.18106383 109.5414779 737.04863284 109.53501268 C693.65148647 109.48939175 650.25433677 109.45292624 606.85717773 109.421875 C564.70645663 109.39169458 522.55574233 109.35731497 480.4050293 109.31738281 C477.75287304 109.31487612 475.10071679 109.31236954 472.44856054 109.30986309 C450.89748777 109.28947361 429.34641528 109.26879495 407.79534286 109.24804622 C308.19690334 109.15236412 208.59845835 109.0778065 109 109 C109 382.57 109 656.14 109 938 C73.03 938 37.06 938 0 938 C0 628.46 0 318.92 0 0 Z " fill="#000000" transform="translate(35,731)"/>
<path d="M0 0 C96.45834393 -0.06039235 96.45834393 -0.06039235 126.31147766 -0.07695007 C127.37616408 -0.07754207 128.44085051 -0.07813408 129.53780016 -0.07874402 C165.39309332 -0.09862685 201.24838706 -0.1143757 237.10368347 -0.12702942 C238.2742673 -0.12744359 239.44485114 -0.12785776 240.6509072 -0.12828448 C266.09362701 -0.13726416 291.536347 -0.14557457 316.97906725 -0.15319599 C329.45699214 -0.15693785 341.93491698 -0.16082753 354.4128418 -0.16479492 C355.65451527 -0.1651872 356.89618873 -0.16557948 358.17548867 -0.16598364 C398.38877866 -0.17875731 438.60205596 -0.20128349 478.81533826 -0.22889166 C520.1553803 -0.25722172 561.49541532 -0.27566381 602.83546689 -0.28174497 C608.68054553 -0.28260938 614.52562414 -0.28358629 620.37070274 -0.28463173 C621.52104667 -0.284834 622.6713906 -0.28503627 623.85659344 -0.28524467 C642.34007329 -0.28878355 660.82353139 -0.30268078 679.30700238 -0.3204961 C697.909639 -0.33820361 716.51225416 -0.3448925 735.1148989 -0.34050413 C746.15374573 -0.3382303 757.19251371 -0.34423465 768.23134624 -0.36239263 C775.62398881 -0.37371696 783.0165803 -0.37393901 790.40922652 -0.36549544 C794.60946751 -0.36100524 798.80956038 -0.36099683 803.00978491 -0.37464955 C827.08921465 -0.44835246 850.9406185 0.53553592 874.5625 5.6875 C875.75101563 5.94096191 876.93953125 6.19442383 878.1640625 6.45556641 C922.16165431 16.1777278 963.92423264 34.9866558 1000 62 C1000.93513428 62.69971924 1000.93513428 62.69971924 1001.88916016 63.41357422 C1009.39410872 69.07548023 1016.46984891 75.08461357 1023.328125 81.51171875 C1025.5542356 83.58486561 1027.81247618 85.58760465 1030.125 87.5625 C1037.66735322 94.11697743 1044.60286025 101.33084211 1051 109 C1051.67820801 109.80751709 1051.67820801 109.80751709 1052.37011719 110.63134766 C1107.81645013 176.86580097 1134.74543379 260.28032049 1127.72265625 346.55859375 C1123.42727889 393.28819129 1109.31314718 439.72230491 1085 480 C1084.525625 480.78842285 1084.05125 481.5768457 1083.5625 482.38916016 C1077.27757464 492.75560443 1070.61265028 502.56496654 1063 512 C1061.96939453 513.31871094 1061.96939453 513.31871094 1060.91796875 514.6640625 C1056.853124 519.84333214 1052.57952195 524.77897596 1048.140625 529.640625 C1046.28246533 531.6886696 1044.47972579 533.7695697 1042.6875 535.875 C1035.44867484 544.17439722 1027.4750948 551.97255821 1019 559 C1018.46455566 559.44923828 1017.92911133 559.89847656 1017.37744141 560.36132812 C987.62371216 585.27142703 954.42287896 604.56272434 918 618 C917.10071777 618.33370605 916.20143555 618.66741211 915.27490234 619.01123047 C892.64264115 627.29008533 868.89931512 632.14135152 845 635 C844.03267913 635.12494056 844.03267913 635.12494056 843.04581642 635.25240517 C832.79574934 636.39000947 822.48582736 636.13194184 812.1887207 636.11352539 C809.94462428 636.11321873 807.70052777 636.11335311 805.45643139 636.11389065 C799.46937685 636.11411558 793.48234246 636.10833712 787.49529266 636.10128021 C781.86872802 636.09556782 776.24216818 636.09531614 770.61560059 636.09460449 C754.18123107 636.08936579 737.74686528 636.07540457 721.3125 636.0625 C684.579375 636.041875 647.84625 636.02125 610 636 C610 503.34 610 370.68 610 234 C647.29 234 684.58 234 723 234 C723 330.36 723 426.72 723 526 C785.76135938 527.68037078 785.76135938 527.68037078 850.8125 520.875 C851.79984131 520.66182129 852.78718262 520.44864258 853.80444336 520.22900391 C887.90487521 512.51924722 918.65110868 496.89353603 945 474 C945.54736816 473.5270752 946.09473633 473.05415039 946.65869141 472.56689453 C963.33804253 458.0427115 977.07419491 441.24626356 988 422 C988.62624268 420.90703613 988.62624268 420.90703613 989.26513672 419.79199219 C1016.14161794 372.34924427 1022.70209461 316.56575363 1008.6875 263.98046875 C999.10791144 229.61036856 981.25298529 199.98534138 957 174 C956.24203125 173.18789062 955.4840625 172.37578125 954.703125 171.5390625 C948.01841999 164.61405764 940.71132676 158.7240701 933 153 C932.18958252 152.39841064 932.18958252 152.39841064 931.36279297 151.78466797 C907.69357823 134.41363664 880.48704378 122.29775286 851.8125 116.1875 C850.90024658 115.9925293 849.98799316 115.79755859 849.0480957 115.59667969 C831.03874512 112.00778529 813.19237275 111.70073829 794.88755384 111.72052841 C791.22423249 111.72225383 787.56093811 111.71233729 783.89762843 111.70397437 C777.49362535 111.69092128 771.08964855 111.68512076 764.68563271 111.68421364 C755.16326867 111.68283123 745.64094341 111.67000955 736.11859244 111.6549259 C720.09645437 111.62986636 704.07431961 111.61396194 688.05216599 111.60334396 C672.19691637 111.59280643 656.34167925 111.57815764 640.48643875 111.55806351 C639.49921081 111.55681464 638.51198287 111.55556577 637.49483893 111.55427906 C632.48084809 111.54791497 627.46685734 111.54147788 622.45286663 111.53501268 C586.9737926 111.48939602 551.49471451 111.45292869 516.015625 111.421875 C481.55630906 111.39169287 447.09700136 111.3573459 412.63769531 111.31738281 C411.57480092 111.31615181 410.51190652 111.31492081 409.41680321 111.3136525 C398.74241213 111.30128524 388.06802115 111.28883355 377.39363024 111.27632002 C355.65024827 111.25083228 333.90686567 111.22590793 312.16348267 111.20132446 C311.16384028 111.20019355 310.1641979 111.19906264 309.13426332 111.19789747 C257.43883439 111.13946375 205.74339778 111.08939362 154.04795837 111.04124451 C153.32100039 111.04056736 152.59404241 111.03989022 151.84505539 111.03919255 C137.56337046 111.02590456 123.28168521 111.01298772 109 111 C109 151.59 109 192.18 109 234 C207.67 234 306.34 234 408 234 C408 270.96 408 307.92 408 346 C273.36 346 138.72 346 0 346 C0 231.82 0 117.64 0 0 Z " fill="#000000" transform="translate(183,881)"/>
<path d="M0 0 C0.66 0 1.32 0 2 0 C3.50195312 2.09423828 3.50195312 2.09423828 5.28125 5.0703125 C5.94898438 6.17890625 6.61671875 7.2875 7.3046875 8.4296875 C8.03656991 9.66139204 8.76833739 10.89316488 9.5 12.125 C10.26234819 13.39623695 11.02538059 14.66706382 11.7890625 15.9375 C13.79948332 19.28559016 15.80144625 22.63866097 17.80175781 25.99279785 C19.70635724 29.18323473 21.6186472 32.36904412 23.53125 35.5546875 C24.27613639 36.7955649 25.02100945 38.03645031 25.76586914 39.27734375 C26.13390656 39.8904541 26.50194397 40.50356445 26.88113403 41.13525391 C28.00930502 43.01550811 29.13649752 44.89634567 30.26342773 46.77734375 C35.33633528 55.24291752 40.43733818 63.69096488 45.5625 72.125 C45.91201721 72.70028442 46.26153442 73.27556885 46.62164307 73.86828613 C50.12099363 79.62729345 53.62409875 85.38400319 57.13153076 91.13809204 C58.88055445 94.00799773 60.62815399 96.87876836 62.375 99.75 C62.72016663 100.31724792 63.06533325 100.88449585 63.42095947 101.46893311 C69.75251788 111.88144358 75.97195677 122.35891229 82.1781311 132.84649658 C86.75222796 140.57308082 91.35101894 148.27500675 96.16162109 155.85742188 C100.41050296 162.58496838 104.47725842 169.42245507 108.5625 176.25 C114.63328854 186.39554917 120.730287 196.52403516 126.875 206.625 C131.60593544 214.40322113 136.32538074 222.18775503 141 230 C145.69936752 237.85147132 150.4368112 245.67950819 155.1875 253.5 C155.54765198 254.09300903 155.90780396 254.68601807 156.27886963 255.29699707 C159.9015187 261.26155458 163.52656814 267.22463563 167.15872192 273.18341064 C168.89864988 276.03822952 170.63720764 278.8938807 172.375 281.75 C172.7196228 282.31634155 173.06424561 282.88268311 173.41931152 283.46618652 C179.75179885 293.8802491 185.97272513 304.35896182 192.17913818 314.84851074 C196.7206775 322.5214682 201.28796767 330.1678893 206.07592773 337.69042969 C211.15805288 345.73758021 215.93552448 353.97262286 220.77978516 362.1640625 C227.27116243 373.15433588 227.27116243 373.15433588 234 384 C239.02080901 391.88723451 243.74115878 399.95331673 248.5 408 C255.65535956 420.13902759 255.65535956 420.13902759 263.0625 432.125 C267.69255536 439.42184365 272.12550456 446.83495025 276.5625 454.25 C282.53314505 464.22636213 288.5234659 474.18986577 294.5625 484.125 C294.91138275 484.69919678 295.2602655 485.27339355 295.61972046 485.86499023 C299.11970999 491.62509752 302.62343677 497.38291718 306.13153076 503.13809204 C307.88055445 506.00799773 309.62815399 508.87876836 311.375 511.75 C311.72016663 512.31724792 312.06533325 512.88449585 312.42095947 513.46893311 C318.75251788 523.88144358 324.97195677 534.35891229 331.1781311 544.84649658 C335.75222796 552.57308082 340.35101894 560.27500675 345.16162109 567.85742188 C349.41050296 574.58496838 353.47725842 581.42245507 357.5625 588.25 C363.63328854 598.39554917 369.730287 608.52403516 375.875 618.625 C380.60593537 626.40322101 385.32540497 634.18774054 390 642 C395.01109009 650.37277014 400.06302191 658.7204366 405.125 667.0625 C405.50333984 667.68648682 405.88167969 668.31047363 406.27148438 668.95336914 C407.34953597 670.73107245 408.42851578 672.50820868 409.5078125 674.28515625 C410.13316895 675.31519775 410.75852539 676.34523926 411.40283203 677.40649414 C412.56525404 679.29405285 413.77035305 681.15552957 415 683 C415 683.99 415 684.98 415 686 C226.57 686 38.14 686 -156 686 C-156 650.36 -156 614.72 -156 578 C-34.23 577.67 87.54 577.34 213 577 C207.39 567.76 201.78 558.52 196 549 C190.32744565 539.48913043 190.32744565 539.48913043 187.57104492 534.81542969 C181.28764147 524.1650107 174.9373688 513.5580088 168.5 503 C162.01673213 492.36671155 155.63522658 481.6763327 149.29199219 470.95898438 C143.75294929 461.60315969 138.16003861 452.28309988 132.5 443 C126.01673213 432.36671155 119.63522658 421.6763327 113.29199219 410.95898438 C107.75294929 401.60315969 102.16003861 392.28309988 96.5 383 C90.01673213 372.36671155 83.63522658 361.6763327 77.29199219 350.95898438 C71.752948 341.60315752 66.15990613 332.28318221 60.5 323 C53.08405582 310.83293027 45.79650778 298.59245119 38.53408813 286.33325195 C38.14514374 285.67671631 37.75619934 285.02018066 37.35546875 284.34375 C36.78184097 283.37538208 36.78184097 283.37538208 36.19662476 282.38745117 C32.7082266 276.50149751 29.19126457 270.63298037 25.6574707 264.77416992 C22.88606033 260.17062187 20.14268322 255.55139704 17.41864014 250.91970825 C15.67596891 247.9568893 13.92969674 244.99619781 12.18359375 242.03540039 C11.31482723 240.55963189 10.44794782 239.08275078 9.58300781 237.60473633 C8.36985269 235.53191116 7.15041239 233.4629048 5.9296875 231.39453125 C5.56253632 230.76327835 5.19538513 230.13202545 4.81710815 229.48164368 C2.97636984 226.17609897 2.97636984 226.17609897 0 224 C-0.20238281 224.76957031 -0.40476562 225.53914063 -0.61328125 226.33203125 C-2.55807966 231.47616001 -5.36718586 235.97880161 -8.1875 240.6875 C-13.43173722 249.5514602 -18.53077215 258.47905025 -23.5 267.5 C-28.8013227 277.10856176 -34.23962119 286.62181066 -39.80078125 296.08203125 C-43.95900197 303.17161027 -48.00370967 310.31803493 -52 317.5 C-56.55269292 325.68190842 -61.19248069 333.8031357 -65.9375 341.875 C-70.91733395 350.34965015 -75.75089103 358.89400177 -80.5 367.5 C-85.80212322 377.10813142 -91.23960865 386.62178932 -96.80078125 396.08203125 C-100.95900197 403.17161027 -105.00370967 410.31803493 -109 417.5 C-113.55269292 425.68190842 -118.19248069 433.8031357 -122.9375 441.875 C-127.91733395 450.34965015 -132.75089103 458.89400177 -137.5 467.5 C-142.80212322 477.10813142 -148.23960865 486.62178932 -153.80078125 496.08203125 C-157.95900268 503.17161148 -162.0036613 510.31806095 -166 517.5 C-170.57566642 525.72203025 -175.23587865 533.8857113 -180 542 C-185.31839275 551.06184259 -190.49871109 560.19192699 -195.61376953 569.36987305 C-199.987516 577.21096857 -204.41487167 585.02030922 -208.875 592.8125 C-209.20836365 593.39495483 -209.54172729 593.97740967 -209.88519287 594.57751465 C-211.57873714 597.53593532 -213.27307826 600.49389866 -214.96777344 603.45166016 C-216.98350965 606.97031518 -218.99616669 610.49072392 -221.0078125 614.01171875 C-221.33740967 614.5886145 -221.66700684 615.16551025 -222.0065918 615.7598877 C-223.0044472 617.50656171 -224.00223679 619.25327331 -225 621 C-228.68090652 627.44395145 -232.36191643 633.8878318 -236.05130005 640.32693481 C-237.7432784 643.28003016 -239.43437464 646.23362989 -241.125 649.1875 C-241.62383698 650.05900696 -241.62383698 650.05900696 -242.13275146 650.94812012 C-246.84669898 659.18785151 -251.50367995 667.45796842 -256.125 675.75 C-261.22214598 684.89445571 -266.44998746 693.95359092 -271.75048828 702.98144531 C-276.53005592 711.14259374 -281.15366602 719.38476861 -285.75219727 727.64892578 C-289.72815635 734.77628267 -293.80163998 741.83939092 -297.9375 748.875 C-302.91733395 757.34965015 -307.75089103 765.89400177 -312.5 774.5 C-317.24916091 783.10609237 -322.087149 791.6477411 -327.0625 800.125 C-334.19262502 812.32971851 -341.09366722 824.6672629 -348 837 C-398.49 837 -448.98 837 -501 837 C-499.4219695 833.05492374 -497.81618648 829.78328045 -495.68359375 826.15234375 C-495.19169807 825.31246918 -495.19169807 825.31246918 -494.68986511 824.45562744 C-493.60950046 822.61401395 -492.52373351 820.77565711 -491.4375 818.9375 C-490.67034754 817.63390729 -489.90325878 816.33027709 -489.13623047 815.02661133 C-483.35009812 805.21022392 -477.4539602 795.46330085 -471.51928711 785.73608398 C-466.11035637 776.86456312 -460.79179983 767.94180201 -455.5 759 C-449.51121702 748.88411166 -443.48444408 738.79352894 -437.375 728.75 C-436.8563739 727.89737579 -436.8563739 727.89737579 -436.32727051 727.02752686 C-434.24023868 723.59761279 -432.1510363 720.16902449 -430.06115723 716.74084473 C-426.7877342 711.37074399 -423.51719337 705.99889317 -420.25 700.625 C-419.71412262 699.74370422 -419.71412262 699.74370422 -419.16741943 698.84460449 C-414.02486456 690.3828678 -408.95588822 681.88052296 -403.93896484 673.34375 C-399.65108464 666.06319057 -395.27212123 658.83996646 -390.875 651.625 C-384.67907191 641.45804528 -378.563958 631.24618912 -372.5 621 C-366.21961779 610.38864843 -359.87707433 599.81900663 -353.45800781 589.29101562 C-347.73548064 579.90157441 -342.10060119 570.46261639 -336.5 561 C-330.21953143 550.38869902 -323.877075 539.81900773 -317.45800781 529.29101562 C-311.73548064 519.90157441 -306.10060119 510.46261639 -300.5 501 C-294.21953143 490.38869902 -287.877075 479.81900773 -281.45800781 469.29101562 C-275.73548064 459.90157441 -270.10060119 450.46261639 -264.5 441 C-258.21953143 430.38869902 -251.877075 419.81900773 -245.45800781 409.29101562 C-239.73548064 399.90157441 -234.10060119 390.46261639 -228.5 381 C-222.21953143 370.38869902 -215.877075 359.81900773 -209.45800781 349.29101562 C-203.73548064 339.90157441 -198.10060119 330.46261639 -192.5 321 C-186.21953143 310.38869902 -179.877075 299.81900773 -173.45800781 289.29101562 C-167.73548064 279.90157441 -162.10060119 270.46261639 -156.5 261 C-150.21953143 250.38869902 -143.877075 239.81900773 -137.45800781 229.29101562 C-131.73548064 219.90157441 -126.10060119 210.46261639 -120.5 201 C-114.21953143 190.38869902 -107.877075 179.81900773 -101.45800781 169.29101562 C-95.73548064 159.90157441 -90.10060119 150.46261639 -84.5 141 C-78.21953143 130.38869902 -71.877075 119.81900773 -65.45800781 109.29101562 C-59.73548064 99.90157441 -54.10060119 90.46261639 -48.5 81 C-42.55946384 70.96303915 -36.57168631 60.95818668 -30.5 51 C-22.15471245 37.31027848 -13.96448312 23.53038615 -5.80276489 9.73060608 C-4.86955892 8.15311636 -3.93482672 6.5765298 -3 5 C-2.46681152 4.04085693 -1.93362305 3.08171387 -1.38427734 2.09350586 C-0.92746582 1.40264893 -0.4706543 0.71179199 0 0 Z " fill="#000000" transform="translate(1804,832)"/>
<path d="M0 0 C134.97 0 269.94 0 409 0 C409 36.96 409 73.92 409 112 C395.52019287 112.03758423 395.52019287 112.03758423 381.76806641 112.07592773 C353.0433631 112.15671575 324.31867618 112.2423756 295.59399638 112.33111694 C291.13525552 112.34488719 286.67651452 112.35861419 282.21777344 112.37231445 C281.33008547 112.37504276 280.4423975 112.37777106 279.5278099 112.38058204 C265.13791364 112.42470606 250.74800949 112.46532279 236.35809942 112.50465261 C221.60237573 112.54505998 206.84666672 112.58921492 192.09096467 112.63687855 C182.9794781 112.66619131 173.86799267 112.69255015 164.756487 112.71517897 C158.51583695 112.73095739 152.27520487 112.75036248 146.03457476 112.77266841 C142.4293535 112.78544596 138.82414614 112.79657767 135.21890831 112.80341911 C131.31783942 112.81086352 127.41682185 112.82592086 123.51577759 112.84178162 C122.36599163 112.84275972 121.21620567 112.84373783 120.03157771 112.84474558 C118.99302712 112.85022002 117.95447654 112.85569446 116.88445473 112.8613348 C115.98299866 112.86399284 115.0815426 112.86665089 114.15276968 112.86938947 C111.94951208 112.86181619 111.94951208 112.86181619 110 114 C109.67 207.72 109.34 301.44 109 398 C73.03 398 37.06 398 0 398 C0 266.66 0 135.32 0 0 Z " fill="#000000" transform="translate(183,1271)"/>
</svg>
