<?xml version="1.0" encoding="UTF-8"?>
<svg version="1.1" xmlns="http://www.w3.org/2000/svg" width="638" height="316">
<path d="M0 0 C0.33 0 0.66 0 1 0 C1.41508094 26.900438 1.12983121 55.09404133 -18.59765625 75.7734375 C-25.68864409 82.34557257 -32.37241448 84.50693556 -41.78125 86.21484375 C-46.17694744 87.28709519 -48.57575113 89.10841207 -52 92 C-53.485 92.495 -53.485 92.495 -55 93 C-15.4 93.495 -15.4 93.495 25 94 C24 100 24 100 20 109 C-145.66 109 -311.32 109 -482 109 C-483.65 118.9 -485.3 128.8 -487 139 C-487.93512386 144.24823981 -488.87673607 149.48935486 -489.8671875 154.7265625 C-490.10986359 156.01605804 -490.35253967 157.30555359 -490.60256958 158.63412476 C-491.10585692 161.30374411 -491.61185518 163.97283215 -492.11962891 166.64160156 C-492.62494572 169.29981253 -493.12477257 171.95896269 -493.61962891 174.61914062 C-512.13698179 274.11287696 -512.13698179 274.11287696 -547.4375 298.875 C-567.6098986 312.10280236 -589.56287628 313.3401122 -613 311 C-612.49045365 306.75378041 -610.05048242 304.58476987 -607.1875 301.5625 C-604.60609904 298.82095304 -602.14560084 296.2013042 -599.9375 293.1484375 C-598 291 -598 291 -595.95703125 290.66015625 C-595.24933594 290.79292969 -594.54164063 290.92570312 -593.8125 291.0625 C-593.01714844 291.1965625 -592.22179687 291.330625 -591.40234375 291.46875 C-589.90982694 291.7988025 -588.42149061 292.14929274 -586.94140625 292.53125 C-575.94551893 295.35816999 -564.15068338 295.52340556 -554 290 C-541.1594815 281.30016328 -536.45459034 265.87381399 -533.48443604 251.29483032 C-532.67132025 246.99615372 -531.92633076 242.68695952 -531.1875 238.375 C-530.8327966 236.37116804 -530.4766053 234.36759903 -530.11914062 232.36425781 C-529.26801847 227.58164758 -528.42571234 222.79756736 -527.58740234 218.01269531 C-525.64637817 206.9485177 -523.65872158 195.89266337 -521.67578125 184.8359375 C-520.90009596 180.50993744 -520.12447124 176.18392653 -519.34887695 171.85791016 C-519.15518241 170.77766256 -518.96148787 169.69741497 -518.76192379 168.5844326 C-517.39697439 160.97009756 -516.0357303 153.35510642 -514.67651367 145.73974609 C-514.49154233 144.70368162 -514.30657099 143.66761715 -514.11599445 142.60015678 C-513.04749455 136.61514755 -513.04749455 136.61514755 -511.98002052 130.62995529 C-511.49754299 127.92347113 -511.01445238 125.21709702 -510.53125 122.51074219 C-510.39000293 121.71728079 -510.24875586 120.92381939 -510.10322857 120.10631371 C-509.44003394 116.39482502 -508.73950281 112.69751407 -508 109 C-518.23 109 -528.46 109 -539 109 C-539 95 -539 95 -538 94 C-535.55169574 93.91156207 -533.13179401 93.88471248 -530.68359375 93.90234375 C-529.58701195 93.90446617 -529.58701195 93.90446617 -528.46827698 93.90663147 C-526.12464368 93.91224592 -523.78110461 93.92480078 -521.4375 93.9375 C-519.85221492 93.94251314 -518.26692834 93.94707637 -516.68164062 93.95117188 C-512.7877239 93.96222003 -508.89387795 93.97949428 -505 94 C-504.8860791 93.29077393 -504.7721582 92.58154785 -504.65478516 91.85083008 C-500.77636499 68.97972849 -487.59667441 47.02959386 -469 33 C-450.79038736 20.45298949 -432.15748584 15.79005514 -410.3125 15.875 C-409.30638672 15.87113281 -408.30027344 15.86726562 -407.26367188 15.86328125 C-402.39871571 15.86969517 -397.78078819 15.97380015 -393 17 C-395.23491932 22.02734434 -398.99514989 25.440762 -402.8125 29.3125 C-403.52470703 30.06595703 -404.23691406 30.81941406 -404.97070312 31.59570312 C-405.66744141 32.30275391 -406.36417969 33.00980469 -407.08203125 33.73828125 C-407.71343018 34.38837158 -408.3448291 35.03846191 -408.99536133 35.70825195 C-411 37 -411 37 -413.60229492 36.76245117 C-416.78963032 35.74890383 -419.70734563 34.37958097 -422.71875 32.9375 C-431.08823448 29.49798583 -441.25791871 30.05413671 -449.69140625 32.96875 C-459.90273573 37.53015606 -466.59104692 46.65829719 -470.87890625 56.73828125 C-475.10077958 69.02143189 -476.86538524 82.22465407 -479 95 C-478.15439258 94.83753786 -477.30878517 94.67507572 -476.43755329 94.50769049 C-472.90041889 93.98529292 -469.57368958 93.87583582 -465.99914742 93.87695217 C-465.3151865 93.87579833 -464.63122559 93.87464448 -463.92653859 93.87345567 C-461.63598845 93.87081 -459.34550868 93.87529426 -457.05496216 93.87974548 C-455.39573871 93.87930936 -453.73651533 93.8784337 -452.07729232 93.87715632 C-447.51880852 93.87491939 -442.9603482 93.87892171 -438.40186739 93.88393438 C-433.4857715 93.88825017 -428.56967696 93.88679165 -423.65357971 93.8860321 C-415.13640148 93.88550759 -406.6192309 93.88864687 -398.1020546 93.89426994 C-385.78762511 93.90239469 -373.47319932 93.90500117 -361.15876745 93.90625793 C-341.17973609 93.90844692 -321.20070882 93.91510285 -301.22167969 93.92456055 C-281.81315125 93.93373863 -262.40462392 93.94081753 -242.99609375 93.94506836 C-241.79988486 93.94533108 -240.60367598 93.94559381 -239.37121834 93.94586449 C-233.37022958 93.94716952 -227.36924081 93.94843323 -221.36825204 93.94967639 C-171.57883187 93.96004422 -121.78941613 93.97765837 -72 94 C-72 93.34 -72 92.68 -72 92 C-71.0821875 91.82984375 -70.164375 91.6596875 -69.21875 91.484375 C-62.21543235 90.10136689 -56.10747757 88.75844774 -50 85 C-47.58093377 82.11000229 -47.58093377 82.11000229 -48.5625 78.5625 C-50.20004251 67.65886325 -44.33024043 57.28915872 -38.359375 48.6171875 C-34.18884118 43.12296251 -29.39883572 38.33272458 -24.5 33.5 C-14.27497142 23.41282571 -6.33302707 12.97348264 0 0 Z " fill="#FD4C11" transform="translate(613,0)"/>
<path d="M0 0 C0.81220001 -0.00095673 1.62440002 -0.00191345 2.46121216 -0.00289917 C4.17059405 -0.0035762 5.87997859 -0.00175536 7.58935547 0.00244141 C10.180724 0.00778243 12.77191814 0.00248732 15.36328125 -0.00390625 C17.03385454 -0.00324511 18.70442773 -0.00196322 20.375 0 C21.519189 -0.00303635 21.519189 -0.00303635 22.68649292 -0.00613403 C27.96373831 0.01642107 33.08289773 0.47935237 38.3203125 1.1328125 C35.48849985 16.47605139 32.37619055 31.74757781 29.11328125 47.00390625 C28.73662902 48.76996424 28.36009377 50.53604718 27.9836731 52.30215454 C26.43209744 59.5776433 24.87984206 66.85294501 23.30883789 74.12426758 C22.33376951 78.63908698 21.36971913 83.15614069 20.412714 87.67482185 C20.05116594 89.37195945 19.68563986 91.06825528 19.31581688 92.76360893 C16.20467024 105.82958973 16.20467024 105.82958973 16.3203125 119.1328125 C18.0051045 122.41316105 18.0051045 122.41316105 21.1953125 122.7578125 C33.86863855 122.10184324 45.16797346 108.33621178 53.5078125 99.9453125 C54.9 98.553125 54.9 98.553125 56.3203125 97.1328125 C56.6503125 97.1328125 56.9803125 97.1328125 57.3203125 97.1328125 C57.63243433 106.3404065 55.37217317 110.67860537 49.05859375 117.4453125 C38.05478083 128.24506041 23.89067595 138.09070098 8.0078125 138.4453125 C2.09098323 138.37898033 -1.11057619 137.92420274 -5.6796875 134.1328125 C-10.86060744 127.40558722 -11.19091423 120.28891351 -10.6796875 112.1328125 C-9.85879037 106.78239847 -8.77946533 101.49429794 -7.6796875 96.1953125 C-7.24892514 94.08269778 -6.82091456 91.96956839 -6.39575195 89.8558197 C-6.01252774 87.95628938 -5.62170981 86.05829572 -5.23046875 84.16040039 C-4.59019591 81.15376633 -4.59019591 81.15376633 -4.6796875 78.1328125 C-5.29714844 79.16019531 -5.91460937 80.18757813 -6.55078125 81.24609375 C-11.71614659 89.74020439 -17.07313472 97.66740785 -23.6796875 105.1328125 C-24.10894531 105.62233398 -24.53820312 106.11185547 -24.98046875 106.61621094 C-37.25393082 120.56091532 -52.1372503 136.01119749 -71.45703125 138.6484375 C-78.65670368 138.96490662 -84.15949904 138.57225958 -89.8828125 133.95703125 C-99.27768616 124.41919212 -100.17127106 112.38846244 -100.10131836 99.60864258 C-99.38051858 71.41181177 -85.37168316 46.99054429 -65.92578125 27.3515625 C-47.5041175 9.97567006 -25.46839939 -0.06722895 0 0 Z M-46.38989258 26.08837891 C-50.57849694 31.42507007 -54.05598583 36.86394468 -57.1796875 42.8828125 C-57.64890625 43.78531738 -58.118125 44.68782227 -58.6015625 45.61767578 C-63.38937194 55.11273056 -66.84542545 64.89762349 -69.6796875 75.1328125 C-69.87030762 75.82068848 -70.06092773 76.50856445 -70.25732422 77.21728516 C-72.21608471 84.61725447 -72.96790287 91.94585418 -73.1171875 99.5703125 C-73.13966553 100.30403076 -73.16214355 101.03774902 -73.18530273 101.79370117 C-73.16097301 107.28161384 -71.73706198 111.55301018 -68.6796875 116.1328125 C-66.19897646 117.97562642 -64.75937593 118.20564862 -61.7109375 118 C-42.40462806 114.80494175 -28.76884817 94.74324864 -18.04882812 80.00146484 C-16.8733809 78.39717222 -15.66264709 76.81883896 -14.4453125 75.24609375 C-5.04760367 62.97268602 4.20484795 47.72896708 7.0703125 32.3828125 C7.43382812 30.50335938 7.43382812 30.50335938 7.8046875 28.5859375 C8.23735927 25.68834779 8.43171292 23.05150361 8.3203125 20.1328125 C-9.57732212 13.57034647 -32.51302674 10.22061369 -46.38989258 26.08837891 Z " fill="#13017C" transform="translate(459.6796875,135.8671875)"/>
<path d="M0 0 C0.90283018 -0.00230769 1.80566036 -0.00461538 2.73584902 -0.006993 C5.78302663 -0.01231723 8.82999595 -0.00328877 11.87716293 0.00558662 C14.07500945 0.00471505 16.27285577 0.00296497 18.47070098 0.00040829 C24.52732725 -0.00407877 30.58388323 0.00395708 36.64050055 0.01396441 C42.49582824 0.0216933 48.35114804 0.02004494 54.20647955 0.01860073 C66.18650209 0.0159713 78.16650259 0.02266191 90.14651871 0.03463554 C102.01091496 0.04646326 113.87530203 0.05416616 125.73970413 0.05634117 C126.47696566 0.05647865 127.21422719 0.05661613 127.97382998 0.05675778 C131.71789803 0.05743443 135.46196609 0.0580372 139.20603415 0.05861153 C165.73604476 0.0628141 192.26604337 0.07629368 218.79604721 0.09521675 C244.57208823 0.11358084 270.34812596 0.12775041 296.12417221 0.13623238 C296.91848385 0.13649543 297.71279549 0.13675848 298.53117718 0.1370295 C306.50786744 0.13966651 314.48455772 0.14221814 322.46124802 0.14470722 C338.71117394 0.14977986 354.96109964 0.15542237 371.21102524 0.16140938 C372.33178166 0.16182125 372.33178166 0.16182125 373.47517962 0.16224144 C423.38324735 0.18064762 473.29130804 0.21238014 523.19936752 0.24609566 C521.66307759 5.3670621 519.67170383 9.30142305 517.19936752 14.24609566 C322.82936752 14.24609566 128.45936752 14.24609566 -71.80063248 14.24609566 C-71.80063248 13.25609566 -71.80063248 12.26609566 -71.80063248 11.24609566 C-70.66972183 11.22422188 -70.66972183 11.22422188 -69.51596451 11.2019062 C-39.22700863 11.39639869 -39.22700863 11.39639869 -11.18807435 1.18750203 C-7.53655306 -0.252351 -3.86842068 -0.02410996 0 0 Z " fill="#267821" transform="translate(71.80063247680664,301.75390434265137)"/>
<path d="M0 0 C1.00611328 -0.00386719 2.01222656 -0.00773438 3.04882812 -0.01171875 C7.91378429 -0.00530483 12.53171181 0.09880015 17.3125 1.125 C15.07758068 6.15234434 11.31735011 9.565762 7.5 13.4375 C6.78779297 14.19095703 6.07558594 14.94441406 5.34179688 15.72070312 C4.64505859 16.42775391 3.94832031 17.13480469 3.23046875 17.86328125 C2.59906982 18.51337158 1.9676709 19.16346191 1.31713867 19.83325195 C-0.6875 21.125 -0.6875 21.125 -3.28979492 20.88745117 C-6.47713032 19.87390383 -9.39484563 18.50458097 -12.40625 17.0625 C-20.77573448 13.62298583 -30.94541871 14.17913671 -39.37890625 17.09375 C-49.59023573 21.65515606 -56.27854692 30.78329719 -60.56640625 40.86328125 C-64.78761913 53.14451036 -66.52457917 66.36376709 -68.6875 79.125 C-77.2675 79.125 -85.8475 79.125 -94.6875 79.125 C-94.6875 83.415 -94.6875 87.705 -94.6875 92.125 C-87.0975 92.125 -79.5075 92.125 -71.6875 92.125 C-73.13839885 102.81877694 -74.94219849 113.4011731 -76.91796875 124.0078125 C-77.23465007 125.71434428 -77.55132576 127.4208771 -77.86799622 129.12741089 C-78.53057448 132.69295275 -79.19583571 136.25798307 -79.86254883 139.82275391 C-80.53390459 143.4148866 -81.19984455 147.00795253 -81.8605957 150.60205078 C-101.63177409 258.10269901 -101.63177409 258.10269901 -137.125 283 C-157.2973986 296.22780236 -179.25037628 297.4651122 -202.6875 295.125 C-202.17795365 290.87878041 -199.73798242 288.70976987 -196.875 285.6875 C-194.29359904 282.94595304 -191.83310084 280.3263042 -189.625 277.2734375 C-187.6875 275.125 -187.6875 275.125 -185.64453125 274.78515625 C-184.93683594 274.91792969 -184.22914063 275.05070312 -183.5 275.1875 C-182.70464844 275.3215625 -181.90929687 275.455625 -181.08984375 275.59375 C-179.59732694 275.9238025 -178.10899061 276.27429274 -176.62890625 276.65625 C-165.63301893 279.48316999 -153.83818338 279.64840556 -143.6875 274.125 C-130.8469815 265.42516328 -126.14209034 249.99881399 -123.17193604 235.41983032 C-122.35882025 231.12115372 -121.61383076 226.81195952 -120.875 222.5 C-120.5202966 220.49616804 -120.1641053 218.49259903 -119.80664062 216.48925781 C-118.95551847 211.70664758 -118.11321234 206.92256736 -117.27490234 202.13769531 C-115.33387817 191.0735177 -113.34622158 180.01766337 -111.36328125 168.9609375 C-110.58759596 164.63493744 -109.81197124 160.30892653 -109.03637695 155.98291016 C-108.84268241 154.90266256 -108.64898787 153.82241497 -108.44942379 152.7094326 C-107.08447439 145.09509756 -105.7232303 137.48010642 -104.36401367 129.86474609 C-104.17904233 128.82868162 -103.99407099 127.79261715 -103.80349445 126.72515678 C-102.73499455 120.74014755 -102.73499455 120.74014755 -101.66752052 114.75495529 C-101.18504299 112.04847113 -100.70195238 109.34209702 -100.21875 106.63574219 C-100.07750293 105.84228079 -99.93625586 105.04881939 -99.79072857 104.23131371 C-99.12753394 100.51982502 -98.42700281 96.82251407 -97.6875 93.125 C-107.9175 93.125 -118.1475 93.125 -128.6875 93.125 C-128.6875 79.125 -128.6875 79.125 -127.6875 78.125 C-125.23919574 78.03656207 -122.81929401 78.00971248 -120.37109375 78.02734375 C-119.27451195 78.02946617 -119.27451195 78.02946617 -118.15577698 78.03163147 C-115.81214368 78.03724592 -113.46860461 78.04980078 -111.125 78.0625 C-109.53971492 78.06751314 -107.95442834 78.07207637 -106.36914062 78.07617188 C-102.4752239 78.08722003 -98.58137795 78.10449428 -94.6875 78.125 C-94.5735791 77.41577393 -94.4596582 76.70654785 -94.34228516 75.97583008 C-90.46386499 53.10472849 -77.28417441 31.15459386 -58.6875 17.125 C-40.47788736 4.57798949 -21.84498584 -0.08494486 0 0 Z " fill="#13017B" transform="translate(202.6875,15.875)"/>
<path d="M0 0 C-0.58347439 7.74477662 -1.92389063 15.2198304 -3.50024414 22.81835938 C-3.88973108 24.72728673 -4.27921593 26.63621451 -4.6686219 28.54515839 C-5.08420297 30.5777911 -5.50219072 32.60991586 -5.92082405 34.641922 C-6.79673052 38.8952176 -7.66391561 43.15026315 -8.52964783 47.40563965 C-10.99140219 59.49931199 -13.46482983 71.59058202 -15.9465332 83.68017578 C-17.3201614 90.3721818 -18.68670465 97.06559694 -20.0458135 103.76056719 C-20.90337296 107.98273476 -21.7695941 112.20299835 -22.64249241 116.42201996 C-23.31258251 119.67363581 -23.96984405 122.92782162 -24.62915039 126.18164062 C-24.87069855 127.33622269 -25.1122467 128.49080475 -25.3611145 129.68037415 C-27.65116725 140.91917028 -27.65116725 140.91917028 -25.9375 152.0625 C-23.12168441 154.87831559 -20.92548584 154.78573558 -17 155 C-7.49873817 151.9758454 -0.02040662 145.94909133 7.2578125 139.35546875 C9.50748625 137.42305668 11.28996883 136.12161577 14 135 C14.86693691 139.24576795 15.03291799 142.77042112 14 147 C10.22105942 151.45810502 5.75695883 154.65485481 1 158 C0.14277344 158.65871094 -0.71445312 159.31742188 -1.59765625 159.99609375 C-14.6922282 169.81155753 -28.49744239 175.43034085 -45 174 C-50.92090305 172.4186966 -54.62468889 169.11118539 -58 164 C-64.81087935 150.43316776 -59.82889838 134.14709353 -57.0625 120.125 C-56.65769326 118.02147892 -56.25415071 115.91771421 -55.85180664 113.8137207 C-53.94771363 103.88643061 -51.9950961 93.96870073 -50.04072571 84.0512085 C-49.2020977 79.78676328 -48.3704223 75.52097483 -47.53927612 71.25506592 C-46.94971732 68.24977805 -46.34752047 65.24721681 -45.74438477 62.24462891 C-41.97281005 47.26439789 -41.97281005 47.26439789 -44.75 32.8125 C-51.59967 28.99249173 -59.18740136 30.63828578 -66.5 32.5 C-67.4590625 32.7784375 -68.418125 33.056875 -69.40625 33.34375 C-72 34 -72 34 -76 34 C-76 30.7 -76 27.4 -76 24 C-71.50916359 22.01374879 -67.0741344 20.29850633 -62.37792969 18.83935547 C-61.75749786 18.64545227 -61.13706604 18.45154907 -60.49783325 18.25177002 C-58.47358718 17.6200684 -56.44776345 16.99359978 -54.421875 16.3671875 C-53.00406686 15.92579943 -51.58636425 15.48407225 -50.16876221 15.04202271 C-46.45560003 13.88509779 -42.74108566 12.73257723 -39.02624512 11.58105469 C-35.24066723 10.40682921 -31.45629851 9.22872085 -27.671875 8.05078125 C-23.42104383 6.7277517 -19.17010644 5.40507822 -14.91815186 4.08566284 C-13.03039032 3.49967819 -13.03039032 3.49967819 -11.10449219 2.90185547 C-9.99531433 2.55782684 -8.88613647 2.21379822 -7.74334717 1.85934448 C-1.80762811 0 -1.80762811 0 0 0 Z " fill="#FE4D11" transform="translate(605,119)"/>
<path d="M0 0 C1.22964478 0.00302124 1.22964478 0.00302124 2.48413086 0.00610352 C10.017807 0.12914742 17.91695164 0.89597582 24.75 4.3125 C24.14312026 10.57524861 23.18720171 16.61239125 21.8125 22.75 C21.55823242 23.95172852 21.55823242 23.95172852 21.29882812 25.17773438 C19.9935234 31.0689766 19.9935234 31.0689766 17.75 33.3125 C15.02130593 33.27962417 12.4533382 32.74852229 9.75 32.3125 C9.811875 31.301875 9.87375 30.29125 9.9375 29.25 C9.67398743 23.71623602 8.38159874 19.90116193 4.375 16 C-2.18181784 11.78490281 -8.75209245 10.70467887 -16.375 12 C-20.80114666 12.98737118 -23.6501522 14.61261415 -27.25 17.3125 C-27.91 17.3125 -28.57 17.3125 -29.25 17.3125 C-29.559375 18.09625 -29.86875 18.88 -30.1875 19.6875 C-31.25 22.3125 -31.25 22.3125 -32.25 24.3125 C-33.45158494 33.62970785 -30.20407485 39.9319696 -24.64306641 47.22265625 C-20.28040988 52.7887515 -15.6908146 58.15465368 -11.0625 63.5 C-1.26916806 74.82417856 7.04194544 84.69341919 6.75 100.3125 C5.38073276 111.57253802 -0.08557466 120.50677719 -8.8359375 127.65234375 C-26.66598796 139.91410984 -47.56798801 141.92621824 -68.5 138.0625 C-74.33105832 136.70990157 -79.82049149 134.82923689 -85.25 132.3125 C-82.77233317 127.63932057 -79.49865269 124.16072014 -75.8125 120.4375 C-75.23951172 119.83164063 -74.66652344 119.22578125 -74.07617188 118.6015625 C-73.23602539 117.75078125 -73.23602539 117.75078125 -72.37890625 116.8828125 C-71.87431885 116.36477051 -71.36973145 115.84672852 -70.84985352 115.31298828 C-69.25 114.3125 -69.25 114.3125 -67.23461914 114.5703125 C-64.44647363 115.61299455 -61.80379028 116.89006181 -59.125 118.1875 C-48.47238941 123.1168504 -37.56455708 126.98612287 -25.71875 123.5859375 C-21.52002562 121.65891101 -18.77239599 119.24743774 -16.25 115.3125 C-14.08000044 108.80250131 -14.77553183 102.78135268 -17.8125 96.67578125 C-22.43054987 89.08360687 -28.76752187 82.70733386 -34.8125 76.25 C-46.0532498 64.22769474 -54.18039351 55.19504834 -53.625 37.92578125 C-52.53103825 27.385004 -46.82986996 19.21515497 -38.96484375 12.3046875 C-27.74086933 3.87301891 -13.91987021 -0.09355719 0 0 Z " fill="#13017C" transform="translate(206.25,133.6875)"/>
<path d="M0 0 C0.91628174 0.00201416 1.83256348 0.00402832 2.77661133 0.00610352 C10.38330547 0.118372 17.77647507 0.85698753 24.6875 4.3125 C24.27266138 10.84620832 23.18388554 17.01669513 21.6875 23.375 C21.50928711 24.1373999 21.33107422 24.8997998 21.14746094 25.68530273 C19.8198019 31.1801981 19.8198019 31.1801981 18.6875 32.3125 C17.16821962 32.38429964 15.64582518 32.39642007 14.125 32.375 C13.29871094 32.36597656 12.47242188 32.35695312 11.62109375 32.34765625 C10.98300781 32.33605469 10.34492188 32.32445312 9.6875 32.3125 C9.73390625 31.74402344 9.7803125 31.17554688 9.828125 30.58984375 C10.05683949 25.69698729 9.82160305 21.96258186 7.0703125 17.81640625 C2.6308038 12.98812702 -3.46235658 11.6760459 -9.79296875 11.27734375 C-17.93807838 11.39099644 -23.67881281 13.87522833 -29.625 19.5 C-32.47179616 24.24466026 -32.81504828 28.46183818 -31.859375 33.8828125 C-29.46509651 41.93416076 -24.28212983 47.49490873 -18.80908203 53.59912109 C-16.31684913 56.45238219 -14.00544378 59.44224297 -11.6875 62.4375 C-9.08172171 65.79898647 -6.47582353 69.14855499 -3.7265625 72.39453125 C3.79514481 81.29156691 7.10766592 88.54908046 6.96484375 100.33984375 C5.86707756 112.10604196 -0.9829782 120.97854179 -9.703125 128.42578125 C-25.35919958 139.74596691 -45.04088718 141.42114331 -63.6796875 138.7734375 C-71.17364798 137.3788559 -78.26231261 135.19999879 -85.3125 132.3125 C-81.97972486 127.46236382 -78.28909406 123.03059445 -74.25 118.75 C-73.43402344 117.88246094 -72.61804688 117.01492187 -71.77734375 116.12109375 C-69.3125 114.3125 -69.3125 114.3125 -66.859375 114.35546875 C-63.97718437 115.43850051 -61.33855918 116.7310904 -58.625 118.1875 C-48.56412861 123.28533496 -39.71759324 125.59929793 -28.3125 124.3125 C-25.30056764 123.26782076 -23.04870013 121.99631547 -20.3125 120.3125 C-19.6525 120.3125 -18.9925 120.3125 -18.3125 120.3125 C-17.8484375 119.136875 -17.8484375 119.136875 -17.375 117.9375 C-16.3125 115.3125 -16.3125 115.3125 -15.3125 113.3125 C-14.32180946 105.16053216 -15.70034148 99.08627342 -20.3125 92.3125 C-23.15562388 88.82103759 -26.20619663 85.56928173 -29.3125 82.3125 C-30.48735501 80.9863761 -31.6546278 79.65347757 -32.8125 78.3125 C-34.69033554 76.14710728 -36.58842944 74.01426343 -38.53515625 71.91015625 C-48.55177096 61.05743013 -53.94374601 52.63040983 -53.61328125 37.55078125 C-52.51334145 25.70857218 -44.7698002 17.86663217 -36 10.5 C-25.38829754 2.64771057 -12.95341756 -0.07723806 0 0 Z " fill="#13017C" transform="translate(318.3125,133.6875)"/>
<path d="M0 0 C0.33 0 0.66 0 1 0 C1.41508094 26.900438 1.12983121 55.09404133 -18.59765625 75.7734375 C-25.6981166 82.35435197 -32.39024805 84.50561156 -41.80859375 86.22265625 C-45.47017486 87.1145224 -47.46715754 88.43578733 -50.30859375 90.79296875 C-56.59695377 95.28050512 -64.58280547 95.42609415 -72 95 C-72 94.01 -72 93.02 -72 92 C-71.0821875 91.82984375 -70.164375 91.6596875 -69.21875 91.484375 C-62.21543235 90.10136689 -56.10747757 88.75844774 -50 85 C-47.58093377 82.11000229 -47.58093377 82.11000229 -48.5625 78.5625 C-50.20004251 67.65886325 -44.33024043 57.28915872 -38.359375 48.6171875 C-34.18884118 43.12296251 -29.39883572 38.33272458 -24.5 33.5 C-14.27497142 23.41282571 -6.33302707 12.97348264 0 0 Z " fill="#267720" transform="translate(613,0)"/>
<path d="M0 0 C3.9933504 3.42287177 4.51875926 4.91136663 4.9375 10.1875 C4.80508508 14.93678179 3.22488041 17.70528788 -0.1875 21 C-3.63161164 22.9680638 -6.49683955 23.64915364 -10.43359375 22.8125 C-13.74924522 21.74175751 -15.93178503 20.70706543 -18.375 18.1875 C-19.85711231 13.83379508 -20.05546967 9.79643471 -19.375 5.25 C-14.98611861 -2.27379667 -7.6202592 -3.95124551 0 0 Z " fill="#6F2801" transform="translate(556.375,63.75)"/>
</svg>
